<?xml version="1.0" encoding="UTF-8" standalone="no"?><!DOCTYPE svg PUBLIC "-//W3C//DTD SVG 1.1//EN" "http://www.w3.org/Graphics/SVG/1.1/DTD/svg11.dtd"><svg width="100%" height="100%" viewBox="0 0 1080 1080" version="1.1" xmlns="http://www.w3.org/2000/svg" xmlns:xlink="http://www.w3.org/1999/xlink" xml:space="preserve" xmlns:serif="http://www.serif.com/" style="fill-rule:evenodd;clip-rule:evenodd;stroke-linejoin:round;stroke-miterlimit:2;"><path d="M306.667,140c-55.209,0 -100,44.792 -100,100l-0,600c-0,55.208 44.791,100 100,100l66.666,0c55.209,0 100,-44.792 100,-100l0,-600c0,-55.208 -44.791,-100 -100,-100l-66.666,0Zm400,0c-55.209,0 -100,44.792 -100,100l-0,600c-0,55.208 44.791,100 100,100l66.666,0c55.209,0 100,-44.792 100,-100l0,-600c0,-55.208 -44.791,-100 -100,-100l-66.666,0Z" style="fill-rule:nonzero;"/></svg>