<?xml version="1.0" encoding="UTF-8" standalone="no"?><!DOCTYPE svg PUBLIC "-//W3C//DTD SVG 1.1//EN" "http://www.w3.org/Graphics/SVG/1.1/DTD/svg11.dtd"><svg width="100%" height="100%" viewBox="0 0 1080 1080" version="1.1" xmlns="http://www.w3.org/2000/svg" xmlns:xlink="http://www.w3.org/1999/xlink" xml:space="preserve" xmlns:serif="http://www.serif.com/" style="fill-rule:evenodd;clip-rule:evenodd;stroke-linejoin:round;stroke-miterlimit:2;"><path d="M371.25,90c-31.113,0 -56.25,25.137 -56.25,56.25l0,168.75l112.5,0l0,-168.75c0,-31.113 -25.137,-56.25 -56.25,-56.25Zm337.5,0c-31.113,0 -56.25,25.137 -56.25,56.25l0,168.75l112.5,0l0,-168.75c0,-31.113 -25.137,-56.25 -56.25,-56.25Zm-450,281.25c-31.113,0 -56.25,25.137 -56.25,56.25c0,31.113 25.137,56.25 56.25,56.25l0,56.25c0,136.055 96.68,249.609 225,275.625l0,118.125c0,31.113 25.137,56.25 56.25,56.25c31.113,0 56.25,-25.137 56.25,-56.25l0,-118.125c128.32,-26.016 225,-139.57 225,-275.625l0,-56.25c31.113,0 56.25,-25.137 56.25,-56.25c0,-31.113 -25.137,-56.25 -56.25,-56.25l-562.5,0Z" style="fill-rule:nonzero;"/></svg>