<?xml version="1.0" encoding="UTF-8" standalone="no"?><!DOCTYPE svg PUBLIC "-//W3C//DTD SVG 1.1//EN" "http://www.w3.org/Graphics/SVG/1.1/DTD/svg11.dtd"><svg width="100%" height="100%" viewBox="0 0 1080 1080" version="1.1" xmlns="http://www.w3.org/2000/svg" xmlns:xlink="http://www.w3.org/1999/xlink" xml:space="preserve" xmlns:serif="http://www.serif.com/" style="fill-rule:evenodd;clip-rule:evenodd;stroke-linejoin:round;stroke-miterlimit:2;"><path d="M140,225.714c0,-47.321 38.393,-85.714 85.714,-85.714l171.429,0c47.321,0 85.714,38.393 85.714,85.714l0,171.429c0,47.321 -38.393,85.714 -85.714,85.714l-171.429,0c-47.321,0 -85.714,-38.393 -85.714,-85.714l-0,-171.429Zm114.286,28.572l-0,114.285l114.285,0l0,-114.285l-114.285,-0Zm-114.286,428.571c-0,-47.321 38.393,-85.714 85.714,-85.714l171.429,-0c47.321,-0 85.714,38.393 85.714,85.714l0,171.429c0,47.321 -38.393,85.714 -85.714,85.714l-171.429,0c-47.321,0 -85.714,-38.393 -85.714,-85.714l-0,-171.429Zm114.286,28.572l-0,114.285l114.285,0l0,-114.285l-114.285,-0Zm428.571,-571.429l171.429,0c47.321,0 85.714,38.393 85.714,85.714l0,171.429c0,47.321 -38.393,85.714 -85.714,85.714l-171.429,0c-47.321,0 -85.714,-38.393 -85.714,-85.714l-0,-171.429c-0,-47.321 38.393,-85.714 85.714,-85.714Zm142.857,114.286l-114.285,-0l-0,114.285l114.285,0l0,-114.285Zm-228.571,371.428c-0,-15.714 12.857,-28.571 28.571,-28.571l114.286,-0c15.714,-0 28.571,12.857 28.571,28.571c0,15.715 12.858,28.572 28.572,28.572l57.143,-0c15.714,-0 28.571,-12.857 28.571,-28.572c0,-15.714 12.857,-28.571 28.572,-28.571c15.714,-0 28.571,12.857 28.571,28.571l-0,171.429c-0,15.714 -12.857,28.571 -28.571,28.571l-114.286,0c-15.714,0 -28.572,-12.857 -28.572,-28.571c0,-15.714 -12.857,-28.572 -28.571,-28.572c-15.714,0 -28.571,12.858 -28.571,28.572l-0,114.286c-0,15.714 -12.858,28.571 -28.572,28.571l-57.143,0c-15.714,0 -28.571,-12.857 -28.571,-28.571l-0,-285.715Zm200,314.286c-15.674,0 -28.572,-12.898 -28.572,-28.571c0,-15.674 12.898,-28.572 28.572,-28.572c15.674,0 28.571,12.898 28.571,28.572c0,15.673 -12.897,28.571 -28.571,28.571Zm114.286,0c-15.674,0 -28.572,-12.898 -28.572,-28.571c0,-15.674 12.898,-28.572 28.572,-28.572c15.673,0 28.571,12.898 28.571,28.572c0,15.673 -12.898,28.571 -28.571,28.571Z" style="fill-rule:nonzero;"/></svg>