<?xml version="1.0" encoding="UTF-8" standalone="no"?><!DOCTYPE svg PUBLIC "-//W3C//DTD SVG 1.1//EN" "http://www.w3.org/Graphics/SVG/1.1/DTD/svg11.dtd"><svg width="100%" height="100%" viewBox="0 0 1080 1080" version="1.1" xmlns="http://www.w3.org/2000/svg" xmlns:xlink="http://www.w3.org/1999/xlink" xml:space="preserve" xmlns:serif="http://www.serif.com/" style="fill-rule:evenodd;clip-rule:evenodd;stroke-linejoin:round;stroke-miterlimit:2;"><path d="M290,343.571c0,-29.575 23.996,-53.571 53.571,-53.571l107.143,0c29.576,0 53.572,23.996 53.572,53.571l-0,107.143c-0,29.576 -23.996,53.572 -53.572,53.572l-107.143,-0c-29.575,-0 -53.571,-23.996 -53.571,-53.572l0,-107.143Zm71.429,17.858l-0,71.428l71.428,0l0,-71.428l-71.428,-0Zm-71.429,267.857c0,-29.576 23.996,-53.572 53.571,-53.572l107.143,0c29.576,0 53.572,23.996 53.572,53.572l-0,107.143c-0,29.575 -23.996,53.571 -53.572,53.571l-107.143,-0c-29.575,-0 -53.571,-23.996 -53.571,-53.571l0,-107.143Zm71.429,17.857l-0,71.428l71.428,0l0,-71.428l-71.428,-0Zm267.857,-357.143l107.143,0c29.575,0 53.571,23.996 53.571,53.571l-0,107.143c-0,29.576 -23.996,53.572 -53.571,53.572l-107.143,-0c-29.576,-0 -53.572,-23.996 -53.572,-53.572l0,-107.143c0,-29.575 23.996,-53.571 53.572,-53.571Zm89.285,71.429l-71.428,-0l-0,71.428l71.428,0l0,-71.428Zm-142.857,232.142c0,-9.821 8.036,-17.857 17.857,-17.857l71.429,0c9.821,0 17.857,8.036 17.857,17.857c0,9.822 8.036,17.858 17.857,17.858l35.715,-0c9.821,-0 17.857,-8.036 17.857,-17.858c-0,-9.821 8.035,-17.857 17.857,-17.857c9.821,0 17.857,8.036 17.857,17.857l0,107.143c0,9.822 -8.036,17.857 -17.857,17.857l-71.429,0c-9.821,0 -17.857,-8.035 -17.857,-17.857c0,-9.821 -8.036,-17.857 -17.857,-17.857c-9.821,0 -17.857,8.036 -17.857,17.857l-0,71.429c-0,9.821 -8.036,17.857 -17.857,17.857l-35.715,0c-9.821,0 -17.857,-8.036 -17.857,-17.857l0,-178.572Zm125,196.429c-9.796,0 -17.857,-8.061 -17.857,-17.857c0,-9.796 8.061,-17.857 17.857,-17.857c9.796,-0 17.857,8.061 17.857,17.857c0,9.796 -8.061,17.857 -17.857,17.857Zm71.429,0c-9.796,0 -17.857,-8.061 -17.857,-17.857c-0,-9.796 8.061,-17.857 17.857,-17.857c9.796,-0 17.857,8.061 17.857,17.857c-0,9.796 -8.061,17.857 -17.857,17.857Z" class="fill-charge-green hover:fill-slate-900"/><path d="M363.214,90c26.719,0 48.215,21.496 48.215,48.214c-0,26.719 -21.496,48.215 -48.215,48.215l-176.785,-0l-0,176.785c-0,26.719 -21.496,48.215 -48.215,48.215c-26.718,-0 -48.214,-21.496 -48.214,-48.215l0,-225c0,-26.718 21.496,-48.214 48.214,-48.214l225,0Zm-273.214,626.786c0,-26.719 21.496,-48.215 48.214,-48.215c26.719,0 48.215,21.496 48.215,48.215l-0,176.785l176.785,0c26.719,0 48.215,21.496 48.215,48.215c-0,26.718 -21.496,48.214 -48.215,48.214l-225,0c-26.718,0 -48.214,-21.496 -48.214,-48.214l0,-225Zm851.786,-626.786c26.718,0 48.214,21.496 48.214,48.214l0,225c0,26.719 -21.496,48.215 -48.214,48.215c-26.719,-0 -48.215,-21.496 -48.215,-48.215l0,-176.785l-176.785,-0c-26.719,-0 -48.215,-21.496 -48.215,-48.215c0,-26.718 21.496,-48.214 48.215,-48.214l225,0Zm-48.215,626.786c0,-26.719 21.496,-48.215 48.215,-48.215c26.718,0 48.214,21.496 48.214,48.215l0,225c0,26.718 -21.496,48.214 -48.214,48.214l-225,0c-26.719,0 -48.215,-21.496 -48.215,-48.214c0,-26.719 21.496,-48.215 48.215,-48.215l176.785,0l0,-176.785Z" class="fill-charge-blue hover:fill-slate-900"/></svg>