<?xml version="1.0" encoding="UTF-8" standalone="no"?>
<!DOCTYPE svg PUBLIC "-//W3C//DTD SVG 1.1//EN" "http://www.w3.org/Graphics/SVG/1.1/DTD/svg11.dtd">
<svg width="100%" height="100%" viewBox="0 0 300 300" version="1.1" xmlns="http://www.w3.org/2000/svg" xmlns:xlink="http://www.w3.org/1999/xlink" xml:space="preserve" xmlns:serif="http://www.serif.com/" style="fill-rule:evenodd;clip-rule:evenodd;stroke-linejoin:round;stroke-miterlimit:2;">
    <g transform="matrix(1.57405,0,0,1.57405,-93.3438,-171.653)">
        <g transform="matrix(0.341228,0,0,0.341228,78.1794,116.993)">
            <path d="M104.4,240L184,240C191.5,240 198.6,243.5 203.2,249.5C207.8,255.5 209.2,263.3 207.1,270.5L162.3,427.5L345.5,272L264,272C256.5,272 249.4,268.5 244.8,262.5C240.2,256.5 238.8,248.7 240.9,241.5L285.6,85L104.4,240Z" style="fill:rgb(221,255,235);fill-rule:nonzero;"/>
        </g>
        <g transform="matrix(0.341228,0,0,0.341228,78.1794,116.993)">
            <path d="M321.7,0C340.8,0 354.6,18.3 349.3,36.6L295.8,224L381,224C400.3,224 415.9,239.6 415.9,258.9C415.9,269.2 411.4,278.9 403.6,285.5L144.9,505.2C139.7,509.6 133.1,512 126.3,512C107.2,512 93.4,493.7 98.7,475.4L152.2,288L65.8,288C47.1,288 32,272.9 32,254.3C32,244.4 36.3,235.1 43.8,228.7L303.1,6.9C308.3,2.4 314.9,0 321.7,0ZM285.6,85L104.4,240L184,240C191.5,240 198.6,243.5 203.2,249.5C207.8,255.5 209.2,263.3 207.1,270.5L162.3,427.5L345.5,272L264,272C256.5,272 249.4,268.5 244.8,262.5C240.2,256.5 238.8,248.7 240.9,241.5L285.6,85Z" style="fill:rgb(128,255,247);fill-rule:nonzero;"/>
        </g>
    </g>
    <g transform="matrix(1.57405,0,0,1.57405,-93.3438,-171.653)">
        <g transform="matrix(0.341228,0,0,0.341228,78.1794,116.993)">
            <path d="M104.4,240L184,240C191.5,240 198.6,243.5 203.2,249.5C207.8,255.5 209.2,263.3 207.1,270.5L162.3,427.5L345.5,272L264,272C256.5,272 249.4,268.5 244.8,262.5C240.2,256.5 238.8,248.7 240.9,241.5L285.6,85L104.4,240Z" style="fill:rgb(5,228,98);fill-opacity:0.8;fill-rule:nonzero;"/>
        </g>
        <g transform="matrix(0.341228,0,0,0.341228,78.1794,116.993)">
            <path d="M321.7,0C340.8,0 354.6,18.3 349.3,36.6L295.8,224L381,224C400.3,224 415.9,239.6 415.9,258.9C415.9,269.2 411.4,278.9 403.6,285.5L144.9,505.2C139.7,509.6 133.1,512 126.3,512C107.2,512 93.4,493.7 98.7,475.4L152.2,288L65.8,288C47.1,288 32,272.9 32,254.3C32,244.4 36.3,235.1 43.8,228.7L303.1,6.9C308.3,2.4 314.9,0 321.7,0ZM285.6,85L104.4,240L184,240C191.5,240 198.6,243.5 203.2,249.5C207.8,255.5 209.2,263.3 207.1,270.5L162.3,427.5L345.5,272L264,272C256.5,272 249.4,268.5 244.8,262.5C240.2,256.5 238.8,248.7 240.9,241.5L285.6,85Z" style="fill:rgb(0,157,241);fill-opacity:0.6;fill-rule:nonzero;"/>
        </g>
    </g>
</svg>
