<?xml version="1.0" encoding="UTF-8" standalone="no"?>
<!DOCTYPE svg PUBLIC "-//W3C//DTD SVG 1.1//EN" "http://www.w3.org/Graphics/SVG/1.1/DTD/svg11.dtd">
<svg width="100%" height="100%" viewBox="0 0 1350 420" version="1.1" xmlns="http://www.w3.org/2000/svg" xmlns:xlink="http://www.w3.org/1999/xlink" xml:space="preserve" xmlns:serif="http://www.serif.com/" style="fill-rule:evenodd;clip-rule:evenodd;stroke-linejoin:round;stroke-miterlimit:2;">
    <g transform="matrix(0.837662,0,0,0.837662,-76.3764,-113.383)">
        <g transform="matrix(1,0,0,1,11.0078,56.0543)">
            <g transform="matrix(1.96429,0,0,1.96429,7.54952e-14,11.7857)">
                <g id="Full-Trans-Semi" serif:id="Full Trans Semi" transform="matrix(1.4,0,0,1.4,-168,-58)">
                    <g id="Final-Edges" serif:id="Final Edges">
                        <g id="Full-Trans-Semi1" serif:id="Full Trans Semi">
                            <g>
                                <g transform="matrix(0.357143,0,0,0.357143,160,65.7143)">
                                    <path d="M0,336C0,327.2 7.2,320 16,320C24.8,320 32,327.2 32,336L32,448L144,448C152.8,448 160,455.2 160,464C160,472.8 152.8,480 144,480L16,480C7.2,480 0,472.8 0,464L0,336Z" style="fill:rgb(128,255,247);"/>
                                </g>
                                <g transform="matrix(0.357143,0,0,0.357143,160,65.7143)">
                                    <path d="M432,32C440.8,32 448,39.2 448,48L448,176C448,184.8 440.8,192 432,192C423.2,192 416,184.8 416,176L416,64L304,64C295.2,64 288,56.8 288,48C288,39.2 295.2,32 304,32L432,32Z" style="fill:rgb(128,255,247);"/>
                                </g>
                            </g>
                            <g>
                                <g transform="matrix(0.357143,0,0,0.357143,160,65.7143)">
                                    <path d="M416,336C416,327.2 423.2,320 432,320C440.8,320 448,327.2 448,336L448,464C448,472.8 440.8,480 432,480L304,480C295.2,480 288,472.8 288,464C288,455.2 295.2,448 304,448L416,448L416,336Z" style="fill:rgb(221,255,235);"/>
                                </g>
                                <g transform="matrix(0.357143,0,0,0.357143,160,65.7143)">
                                    <path d="M144,32C152.8,32 160,39.2 160,48C160,56.8 152.8,64 144,64L32,64L32,176C32,184.8 24.8,192 16,192C7.2,192 0,184.8 0,176L0,48C0,39.2 7.2,32 16,32L144,32Z" style="fill:rgb(221,255,235);"/>
                                </g>
                            </g>
                        </g>
                    </g>
                </g>
                <g transform="matrix(0.892625,0,0,0.892625,30.0025,-20.4056)">
                    <g transform="matrix(0.341228,0,0,0.341228,78.1794,116.993)">
                        <path d="M104.4,240L184,240C191.5,240 198.6,243.5 203.2,249.5C207.8,255.5 209.2,263.3 207.1,270.5L162.3,427.5L345.5,272L264,272C256.5,272 249.4,268.5 244.8,262.5C240.2,256.5 238.8,248.7 240.9,241.5L285.6,85L104.4,240Z" style="fill:rgb(221,255,235);fill-rule:nonzero;"/>
                    </g>
                    <g transform="matrix(0.341228,0,0,0.341228,78.1794,116.993)">
                        <path d="M321.7,0C340.8,0 354.6,18.3 349.3,36.6L295.8,224L381,224C400.3,224 415.9,239.6 415.9,258.9C415.9,269.2 411.4,278.9 403.6,285.5L144.9,505.2C139.7,509.6 133.1,512 126.3,512C107.2,512 93.4,493.7 98.7,475.4L152.2,288L65.8,288C47.1,288 32,272.9 32,254.3C32,244.4 36.3,235.1 43.8,228.7L303.1,6.9C308.3,2.4 314.9,0 321.7,0ZM285.6,85L104.4,240L184,240C191.5,240 198.6,243.5 203.2,249.5C207.8,255.5 209.2,263.3 207.1,270.5L162.3,427.5L345.5,272L264,272C256.5,272 249.4,268.5 244.8,262.5C240.2,256.5 238.8,248.7 240.9,241.5L285.6,85Z" style="fill:rgb(128,255,247);fill-rule:nonzero;"/>
                    </g>
                </g>
            </g>
            <g transform="matrix(1.96429,0,0,1.96429,19.6429,-78.0804)">
                <g id="Final-Edges1" serif:id="Final Edges" transform="matrix(0.973913,0,0,0.973913,-17.3043,12.9674)">
                    <g opacity="0.75">
                        <g id="Full-Trans-Semi2" serif:id="Full Trans Semi" transform="matrix(1.4375,0,0,1.4375,-165,-25.8929)">
                            <g opacity="0.5">
                                <g>
                                    <g transform="matrix(0.357143,0,0,0.357143,160,65.7143)">
                                        <path d="M0,336C0,327.2 7.2,320 16,320C24.8,320 32,327.2 32,336L32,448L144,448C152.8,448 160,455.2 160,464C160,472.8 152.8,480 144,480L16,480C7.2,480 0,472.8 0,464L0,336Z" style="fill:rgb(0,157,241);"/>
                                    </g>
                                    <g transform="matrix(0.357143,0,0,0.357143,160,65.7143)">
                                        <path d="M432,32C440.8,32 448,39.2 448,48L448,176C448,184.8 440.8,192 432,192C423.2,192 416,184.8 416,176L416,64L304,64C295.2,64 288,56.8 288,48C288,39.2 295.2,32 304,32L432,32Z" style="fill:rgb(0,157,241);"/>
                                    </g>
                                </g>
                                <g opacity="0.8">
                                    <g transform="matrix(0.357143,0,0,0.357143,160,65.7143)">
                                        <path d="M416,336C416,327.2 423.2,320 432,320C440.8,320 448,327.2 448,336L448,464C448,472.8 440.8,480 432,480L304,480C295.2,480 288,472.8 288,464C288,455.2 295.2,448 304,448L416,448L416,336Z" style="fill:rgb(25,247,128);"/>
                                    </g>
                                    <g transform="matrix(0.357143,0,0,0.357143,160,65.7143)">
                                        <path d="M144,32C152.8,32 160,39.2 160,48C160,56.8 152.8,64 144,64L32,64L32,176C32,184.8 24.8,192 16,192C7.2,192 0,184.8 0,176L0,48C0,39.2 7.2,32 16,32L144,32Z" style="fill:rgb(25,247,128);"/>
                                    </g>
                                </g>
                            </g>
                        </g>
                        <g id="Mini-Opaque-Semi" serif:id="Mini Opaque Semi" transform="matrix(1.4375,0,0,1.4375,-165,-25.8929)">
                            <g opacity="0.9">
                                <g>
                                    <g transform="matrix(0.357143,0,0,0.357143,160,65.7143)">
                                        <path d="M0,392C0,383.2 7.2,376 16,376C24.8,376 32,383.2 32,392L32,448L88,448C96.8,448 104,455.2 104,464C104,472.8 96.8,480 88,480L16,480C7.2,480 0,472.8 0,464L0,392Z" style="fill:rgb(0,157,241);"/>
                                    </g>
                                    <g transform="matrix(0.357143,0,0,0.357143,160,65.7143)">
                                        <path d="M432,32C440.8,32 448,39.2 448,48L448,120C448,128.8 440.8,136 432,136C423.2,136 416,128.8 416,120L416,64L360,64C351.2,64 344,56.8 344,48C344,39.2 351.2,32 360,32L432,32Z" style="fill:rgb(0,157,241);"/>
                                    </g>
                                </g>
                                <g>
                                    <g transform="matrix(0.357143,0,0,0.357143,160,65.7143)">
                                        <path d="M416,392C416,383.2 423.2,376 432,376C440.8,376 448,383.2 448,392L448,464C448,472.8 440.8,480 432,480L360,480C351.2,480 344,472.8 344,464C344,455.2 351.2,448 360,448L416,448L416,392Z" style="fill:rgb(5,228,98);"/>
                                    </g>
                                    <g transform="matrix(0.357143,0,0,0.357143,160,65.7143)">
                                        <path d="M88,32C96.8,32 104,39.2 104,48C104,56.8 96.8,64 88,64L32,64L32,120C32,128.8 24.8,136 16,136C7.2,136 0,128.8 0,120L0,48C0,39.2 7.2,32 16,32L88,32Z" style="fill:rgb(5,228,98);"/>
                                    </g>
                                </g>
                            </g>
                        </g>
                    </g>
                </g>
                <g transform="matrix(0.892625,0,0,0.892625,20.0025,25.3444)">
                    <g transform="matrix(0.341228,0,0,0.341228,78.1794,116.993)">
                        <path d="M104.4,240L184,240C191.5,240 198.6,243.5 203.2,249.5C207.8,255.5 209.2,263.3 207.1,270.5L162.3,427.5L345.5,272L264,272C256.5,272 249.4,268.5 244.8,262.5C240.2,256.5 238.8,248.7 240.9,241.5L285.6,85L104.4,240Z" style="fill:rgb(5,228,98);fill-opacity:0.8;fill-rule:nonzero;"/>
                    </g>
                    <g transform="matrix(0.341228,0,0,0.341228,78.1794,116.993)">
                        <path d="M321.7,0C340.8,0 354.6,18.3 349.3,36.6L295.8,224L381,224C400.3,224 415.9,239.6 415.9,258.9C415.9,269.2 411.4,278.9 403.6,285.5L144.9,505.2C139.7,509.6 133.1,512 126.3,512C107.2,512 93.4,493.7 98.7,475.4L152.2,288L65.8,288C47.1,288 32,272.9 32,254.3C32,244.4 36.3,235.1 43.8,228.7L303.1,6.9C308.3,2.4 314.9,0 321.7,0ZM285.6,85L104.4,240L184,240C191.5,240 198.6,243.5 203.2,249.5C207.8,255.5 209.2,263.3 207.1,270.5L162.3,427.5L345.5,272L264,272C256.5,272 249.4,268.5 244.8,262.5C240.2,256.5 238.8,248.7 240.9,241.5L285.6,85Z" style="fill:rgb(0,157,241);fill-opacity:0.6;fill-rule:nonzero;"/>
                    </g>
                </g>
            </g>
        </g>
        <g id="Final-Text" serif:id="Final Text" transform="matrix(1.0139,0,0,1.86781,300.839,-106.872)">
            <g opacity="0.9">
                <g transform="matrix(1.17744,0,0,0.639142,-39.4108,183.015)">
                    <g transform="matrix(250,0,0,250,340,273.75)">
                        <path d="M0.366,0.011C0.26,0.011 0.18,-0.017 0.125,-0.074C0.07,-0.13 0.043,-0.217 0.043,-0.334C0.043,-0.448 0.07,-0.534 0.123,-0.593C0.176,-0.651 0.257,-0.68 0.366,-0.68C0.401,-0.68 0.437,-0.676 0.472,-0.667C0.507,-0.658 0.542,-0.646 0.575,-0.631L0.575,-0.511C0.542,-0.532 0.509,-0.548 0.477,-0.557C0.444,-0.566 0.413,-0.571 0.384,-0.571C0.34,-0.571 0.303,-0.563 0.274,-0.548C0.244,-0.532 0.222,-0.507 0.207,-0.472C0.192,-0.437 0.184,-0.391 0.184,-0.333C0.184,-0.276 0.192,-0.23 0.207,-0.196C0.222,-0.161 0.244,-0.136 0.275,-0.121C0.305,-0.106 0.343,-0.098 0.389,-0.098C0.416,-0.098 0.446,-0.102 0.478,-0.112C0.509,-0.121 0.542,-0.135 0.575,-0.156L0.575,-0.036C0.556,-0.027 0.534,-0.018 0.511,-0.011C0.488,-0.004 0.464,0.002 0.439,0.006C0.413,0.009 0.389,0.011 0.366,0.011Z" style="fill:rgb(68,255,146);fill-rule:nonzero;"/>
                    </g>
                    <g transform="matrix(250,0,0,250,497,273.75)">
                        <path d="M0.07,-0L0.07,-0.71L0.198,-0.71L0.198,-0.417L0.151,-0.447C0.177,-0.468 0.207,-0.485 0.241,-0.498C0.275,-0.511 0.309,-0.517 0.343,-0.517C0.381,-0.517 0.414,-0.511 0.442,-0.498C0.47,-0.485 0.492,-0.464 0.508,-0.436C0.523,-0.407 0.531,-0.369 0.531,-0.322L0.531,-0L0.404,-0L0.404,-0.3C0.404,-0.337 0.395,-0.364 0.378,-0.383C0.36,-0.401 0.334,-0.41 0.299,-0.41C0.281,-0.41 0.263,-0.407 0.245,-0.402C0.227,-0.397 0.211,-0.39 0.198,-0.382L0.196,-0L0.07,-0Z" style="fill:rgb(68,255,146);fill-rule:nonzero;"/>
                    </g>
                    <g transform="matrix(250,0,0,250,647.25,273.75)">
                        <path d="M0.259,0.015C0.23,0.015 0.203,0.012 0.178,0.007C0.153,0.002 0.13,-0.007 0.11,-0.02C0.09,-0.033 0.074,-0.05 0.063,-0.072C0.051,-0.093 0.045,-0.12 0.045,-0.152C0.045,-0.187 0.052,-0.216 0.066,-0.24C0.08,-0.263 0.1,-0.281 0.128,-0.294C0.155,-0.306 0.188,-0.312 0.227,-0.312C0.251,-0.312 0.273,-0.31 0.294,-0.306C0.315,-0.301 0.333,-0.295 0.35,-0.288C0.367,-0.28 0.38,-0.272 0.391,-0.263L0.4,-0.192C0.386,-0.201 0.368,-0.209 0.347,-0.215C0.325,-0.22 0.301,-0.223 0.276,-0.223C0.241,-0.223 0.214,-0.217 0.197,-0.206C0.18,-0.195 0.171,-0.177 0.171,-0.153C0.171,-0.137 0.176,-0.123 0.185,-0.112C0.194,-0.101 0.206,-0.092 0.221,-0.087C0.236,-0.082 0.251,-0.079 0.267,-0.079C0.304,-0.079 0.33,-0.082 0.347,-0.087C0.363,-0.092 0.371,-0.102 0.371,-0.119L0.371,-0.317C0.371,-0.35 0.361,-0.374 0.34,-0.389C0.319,-0.404 0.29,-0.411 0.253,-0.411C0.224,-0.411 0.195,-0.406 0.165,-0.397C0.135,-0.387 0.111,-0.374 0.092,-0.359L0.092,-0.474C0.11,-0.486 0.137,-0.496 0.173,-0.505C0.209,-0.513 0.248,-0.517 0.289,-0.517C0.306,-0.517 0.325,-0.516 0.344,-0.513C0.363,-0.509 0.382,-0.504 0.4,-0.497C0.418,-0.49 0.434,-0.479 0.449,-0.466C0.464,-0.453 0.475,-0.436 0.484,-0.417C0.493,-0.397 0.497,-0.373 0.497,-0.345L0.496,-0.106C0.496,-0.075 0.486,-0.051 0.467,-0.034C0.447,-0.016 0.419,-0.003 0.384,0.004C0.348,0.011 0.306,0.015 0.259,0.015Z" style="fill:rgb(68,255,146);fill-rule:nonzero;"/>
                    </g>
                    <g transform="matrix(250,0,0,250,789,273.75)">
                        <path d="M0.07,-0L0.07,-0.455C0.079,-0.462 0.096,-0.47 0.12,-0.48C0.143,-0.489 0.171,-0.498 0.202,-0.506C0.233,-0.513 0.265,-0.517 0.297,-0.517C0.321,-0.517 0.34,-0.515 0.355,-0.512C0.369,-0.508 0.38,-0.503 0.389,-0.498L0.389,-0.402C0.376,-0.404 0.361,-0.406 0.344,-0.407C0.327,-0.408 0.309,-0.409 0.292,-0.409C0.274,-0.408 0.257,-0.407 0.241,-0.406C0.224,-0.405 0.21,-0.403 0.197,-0.401L0.197,-0L0.07,-0Z" style="fill:rgb(68,255,146);fill-rule:nonzero;"/>
                    </g>
                    <g transform="matrix(250,0,0,250,892.5,273.75)">
                        <path d="M0.267,0.015C0.22,0.013 0.179,0.003 0.146,-0.017C0.113,-0.035 0.087,-0.064 0.07,-0.101C0.052,-0.137 0.043,-0.183 0.043,-0.237C0.043,-0.294 0.05,-0.34 0.064,-0.377C0.078,-0.413 0.097,-0.441 0.123,-0.462C0.148,-0.482 0.177,-0.496 0.211,-0.505C0.244,-0.513 0.28,-0.517 0.319,-0.517C0.358,-0.517 0.392,-0.512 0.423,-0.502C0.453,-0.492 0.477,-0.477 0.495,-0.458C0.512,-0.438 0.521,-0.413 0.521,-0.384L0.521,0.01C0.521,0.041 0.516,0.07 0.507,0.095C0.497,0.12 0.482,0.141 0.462,0.159C0.441,0.177 0.416,0.191 0.385,0.201C0.354,0.21 0.317,0.215 0.275,0.215C0.235,0.215 0.2,0.212 0.171,0.206C0.142,0.2 0.118,0.193 0.101,0.186L0.101,0.072C0.111,0.076 0.125,0.081 0.143,0.087C0.16,0.092 0.18,0.097 0.202,0.101C0.224,0.105 0.246,0.107 0.268,0.107C0.303,0.107 0.33,0.102 0.349,0.093C0.367,0.084 0.379,0.071 0.386,0.057C0.393,0.042 0.396,0.025 0.396,0.006L0.396,-0.073L0.425,-0.051C0.414,-0.038 0.4,-0.027 0.384,-0.017C0.367,-0.007 0.349,0.001 0.33,0.007C0.31,0.012 0.289,0.015 0.267,0.015ZM0.294,-0.084C0.313,-0.084 0.331,-0.086 0.348,-0.091C0.365,-0.095 0.381,-0.101 0.396,-0.11L0.396,-0.357C0.396,-0.373 0.392,-0.385 0.384,-0.393C0.375,-0.4 0.364,-0.406 0.351,-0.409C0.337,-0.412 0.322,-0.413 0.307,-0.413C0.271,-0.413 0.243,-0.406 0.224,-0.391C0.204,-0.376 0.19,-0.356 0.183,-0.33C0.175,-0.304 0.171,-0.275 0.171,-0.243C0.171,-0.195 0.182,-0.157 0.203,-0.128C0.224,-0.098 0.255,-0.084 0.294,-0.084Z" style="fill:rgb(68,255,146);fill-rule:nonzero;"/>
                    </g>
                    <g transform="matrix(250,0,0,250,1039,273.75)">
                        <path d="M0.293,0.015C0.243,0.015 0.199,0.005 0.162,-0.016C0.124,-0.037 0.095,-0.067 0.074,-0.106C0.053,-0.145 0.043,-0.192 0.043,-0.247C0.043,-0.335 0.064,-0.402 0.107,-0.449C0.149,-0.496 0.209,-0.519 0.286,-0.519C0.341,-0.519 0.385,-0.507 0.419,-0.483C0.453,-0.459 0.478,-0.425 0.493,-0.38C0.508,-0.335 0.516,-0.282 0.515,-0.221L0.125,-0.221L0.116,-0.307L0.414,-0.307L0.39,-0.271C0.389,-0.324 0.38,-0.362 0.363,-0.385C0.345,-0.407 0.318,-0.419 0.281,-0.419C0.258,-0.419 0.239,-0.414 0.222,-0.404C0.205,-0.393 0.193,-0.376 0.184,-0.352C0.175,-0.328 0.17,-0.295 0.17,-0.253C0.17,-0.201 0.182,-0.161 0.207,-0.134C0.231,-0.107 0.268,-0.093 0.319,-0.093C0.34,-0.093 0.36,-0.095 0.379,-0.099C0.398,-0.103 0.415,-0.108 0.432,-0.115C0.448,-0.121 0.462,-0.127 0.474,-0.132L0.474,-0.019C0.45,-0.009 0.423,-0.001 0.394,0.006C0.365,0.012 0.331,0.015 0.293,0.015Z" style="fill:rgb(68,255,146);fill-rule:nonzero;"/>
                    </g>
                </g>
                <g transform="matrix(1.17744,0,0,0.639142,-5.99905,97.6829)">
                    <g transform="matrix(125,0,0,125,320,191.262)">
                        <path d="M0.211,-0.229L0.211,-0L0.075,-0L0.075,-0.667L0.357,-0.667C0.434,-0.667 0.495,-0.649 0.538,-0.614C0.58,-0.579 0.602,-0.525 0.602,-0.453C0.602,-0.381 0.58,-0.326 0.538,-0.287C0.495,-0.248 0.434,-0.229 0.357,-0.229L0.211,-0.229ZM0.211,-0.339L0.34,-0.339C0.363,-0.339 0.383,-0.342 0.398,-0.347C0.413,-0.352 0.424,-0.36 0.433,-0.371C0.442,-0.381 0.448,-0.392 0.452,-0.405C0.455,-0.418 0.457,-0.431 0.457,-0.446C0.457,-0.461 0.455,-0.476 0.452,-0.489C0.448,-0.502 0.442,-0.514 0.433,-0.525C0.424,-0.536 0.413,-0.544 0.398,-0.55C0.383,-0.555 0.363,-0.558 0.34,-0.558L0.211,-0.558L0.211,-0.339Z" style="fill:rgb(49,186,255);fill-rule:nonzero;"/>
                    </g>
                    <g transform="matrix(125,0,0,125,401.25,191.262)">
                        <path d="M0.292,0.015C0.209,0.015 0.146,-0.008 0.105,-0.054C0.064,-0.1 0.043,-0.166 0.043,-0.253C0.043,-0.346 0.064,-0.414 0.107,-0.456C0.149,-0.498 0.21,-0.519 0.291,-0.519C0.347,-0.519 0.393,-0.509 0.431,-0.49C0.467,-0.47 0.495,-0.44 0.514,-0.401C0.533,-0.362 0.542,-0.312 0.542,-0.253C0.542,-0.166 0.52,-0.1 0.477,-0.054C0.434,-0.008 0.372,0.015 0.292,0.015ZM0.291,-0.089C0.32,-0.089 0.344,-0.096 0.363,-0.109C0.381,-0.122 0.394,-0.141 0.403,-0.166C0.412,-0.191 0.416,-0.22 0.416,-0.253C0.416,-0.291 0.412,-0.322 0.403,-0.346C0.394,-0.37 0.38,-0.388 0.362,-0.399C0.343,-0.41 0.32,-0.416 0.291,-0.416C0.262,-0.416 0.238,-0.41 0.22,-0.398C0.202,-0.386 0.189,-0.368 0.181,-0.344C0.173,-0.32 0.169,-0.29 0.169,-0.253C0.169,-0.2 0.179,-0.16 0.198,-0.132C0.217,-0.103 0.248,-0.089 0.291,-0.089Z" style="fill:rgb(49,186,255);fill-rule:nonzero;"/>
                    </g>
                    <g transform="matrix(125,0,0,125,474.25,191.262)">
                        <rect x="0.07" y="-0.695" width="0.126" height="0.695" style="fill:rgb(49,186,255);fill-rule:nonzero;"/>
                    </g>
                    <g transform="matrix(125,0,0,125,507.5,191.262)">
                        <path d="M0.259,0.015C0.23,0.015 0.203,0.012 0.178,0.007C0.153,0.002 0.13,-0.007 0.11,-0.02C0.09,-0.033 0.074,-0.05 0.063,-0.072C0.051,-0.093 0.045,-0.12 0.045,-0.152C0.045,-0.187 0.052,-0.216 0.066,-0.24C0.08,-0.263 0.1,-0.281 0.128,-0.294C0.155,-0.306 0.188,-0.312 0.227,-0.312C0.251,-0.312 0.273,-0.31 0.294,-0.306C0.315,-0.301 0.333,-0.295 0.35,-0.288C0.367,-0.28 0.38,-0.272 0.391,-0.263L0.4,-0.192C0.386,-0.201 0.368,-0.209 0.347,-0.215C0.325,-0.22 0.301,-0.223 0.276,-0.223C0.241,-0.223 0.214,-0.217 0.197,-0.206C0.18,-0.195 0.171,-0.177 0.171,-0.153C0.171,-0.137 0.176,-0.123 0.185,-0.112C0.194,-0.101 0.206,-0.092 0.221,-0.087C0.236,-0.082 0.251,-0.079 0.267,-0.079C0.304,-0.079 0.33,-0.082 0.347,-0.087C0.363,-0.092 0.371,-0.102 0.371,-0.119L0.371,-0.317C0.371,-0.35 0.361,-0.374 0.34,-0.389C0.319,-0.404 0.29,-0.411 0.253,-0.411C0.224,-0.411 0.195,-0.406 0.165,-0.397C0.135,-0.387 0.111,-0.374 0.092,-0.359L0.092,-0.474C0.11,-0.486 0.137,-0.496 0.173,-0.505C0.209,-0.513 0.248,-0.517 0.289,-0.517C0.306,-0.517 0.325,-0.516 0.344,-0.513C0.363,-0.509 0.382,-0.504 0.4,-0.497C0.418,-0.49 0.434,-0.479 0.449,-0.466C0.464,-0.453 0.475,-0.436 0.484,-0.417C0.493,-0.397 0.497,-0.373 0.497,-0.345L0.496,-0.106C0.496,-0.075 0.486,-0.051 0.467,-0.034C0.447,-0.016 0.419,-0.003 0.384,0.004C0.348,0.011 0.306,0.015 0.259,0.015Z" style="fill:rgb(49,186,255);fill-rule:nonzero;"/>
                    </g>
                    <g transform="matrix(125,0,0,125,578.375,191.262)">
                        <path d="M0.07,-0L0.07,-0.455C0.079,-0.462 0.096,-0.47 0.12,-0.48C0.143,-0.489 0.171,-0.498 0.202,-0.506C0.233,-0.513 0.265,-0.517 0.297,-0.517C0.321,-0.517 0.34,-0.515 0.355,-0.512C0.369,-0.508 0.38,-0.503 0.389,-0.498L0.389,-0.402C0.376,-0.404 0.361,-0.406 0.344,-0.407C0.327,-0.408 0.309,-0.409 0.292,-0.409C0.274,-0.408 0.257,-0.407 0.241,-0.406C0.224,-0.405 0.21,-0.403 0.197,-0.401L0.197,-0L0.07,-0Z" style="fill:rgb(49,186,255);fill-rule:nonzero;"/>
                    </g>
                    <g transform="matrix(125,0,0,125,630.125,191.262)">
                        <path d="M0.073,-0L0.073,-0.499L0.2,-0.499L0.201,-0L0.073,-0ZM0.07,-0.579L0.07,-0.684L0.203,-0.684L0.203,-0.579L0.07,-0.579Z" style="fill:rgb(49,186,255);fill-rule:nonzero;"/>
                    </g>
                    <g transform="matrix(125,0,0,125,664.25,191.262)">
                        <path d="M0.218,0.015C0.182,0.015 0.151,0.011 0.126,0.004C0.101,-0.004 0.076,-0.013 0.053,-0.024L0.053,-0.139C0.068,-0.129 0.085,-0.119 0.102,-0.111C0.119,-0.101 0.137,-0.094 0.157,-0.089C0.176,-0.084 0.198,-0.081 0.221,-0.081C0.247,-0.081 0.267,-0.086 0.28,-0.096C0.293,-0.106 0.299,-0.119 0.299,-0.134C0.299,-0.147 0.294,-0.158 0.284,-0.166C0.274,-0.173 0.261,-0.18 0.245,-0.185C0.229,-0.19 0.212,-0.196 0.194,-0.201C0.177,-0.205 0.161,-0.21 0.144,-0.217C0.127,-0.224 0.111,-0.233 0.097,-0.244C0.083,-0.255 0.072,-0.27 0.064,-0.288C0.055,-0.305 0.051,-0.327 0.051,-0.352C0.051,-0.382 0.057,-0.407 0.069,-0.428C0.081,-0.449 0.097,-0.466 0.117,-0.479C0.136,-0.492 0.158,-0.501 0.181,-0.507C0.204,-0.512 0.226,-0.515 0.248,-0.514C0.287,-0.513 0.318,-0.509 0.341,-0.501C0.364,-0.493 0.386,-0.483 0.407,-0.472L0.407,-0.368C0.384,-0.381 0.361,-0.392 0.34,-0.403C0.318,-0.413 0.293,-0.418 0.264,-0.418C0.238,-0.418 0.218,-0.413 0.204,-0.405C0.189,-0.396 0.182,-0.383 0.182,-0.367C0.182,-0.353 0.186,-0.342 0.195,-0.334C0.204,-0.325 0.215,-0.319 0.23,-0.314C0.244,-0.309 0.259,-0.304 0.276,-0.299C0.293,-0.294 0.31,-0.289 0.328,-0.284C0.345,-0.278 0.362,-0.27 0.378,-0.26C0.393,-0.249 0.406,-0.235 0.416,-0.217C0.425,-0.199 0.43,-0.176 0.43,-0.147C0.429,-0.108 0.419,-0.076 0.399,-0.053C0.378,-0.029 0.352,-0.012 0.32,-0.001C0.288,0.01 0.254,0.015 0.218,0.015Z" style="fill:rgb(49,186,255);fill-rule:nonzero;"/>
                    </g>
                </g>
            </g>
        </g>
    </g>
</svg>
