<?xml version="1.0" encoding="UTF-8" standalone="no"?><!DOCTYPE svg PUBLIC "-//W3C//DTD SVG 1.1//EN" "http://www.w3.org/Graphics/SVG/1.1/DTD/svg11.dtd"><svg width="100%" height="100%" viewBox="0 0 1700 550" version="1.1" xmlns="http://www.w3.org/2000/svg" xmlns:xlink="http://www.w3.org/1999/xlink" xml:space="preserve" xmlns:serif="http://www.serif.com/" style="fill-rule:evenodd;clip-rule:evenodd;stroke-linejoin:round;stroke-miterlimit:2;"><g><g><g><g id="Final-Edges" serif:id="Final Edges"><g id="Full-Trans-Semi" serif:id="Full Trans Semi"><g><path d="M60.53,339.802c0,-8.35 6.832,-15.182 15.182,-15.182c8.35,-0 15.182,6.832 15.182,15.182l-0,106.272l106.272,0c8.35,0 15.182,6.832 15.182,15.182c0,8.35 -6.832,15.182 -15.182,15.182l-121.454,-0c-8.35,-0 -15.182,-6.832 -15.182,-15.182l0,-121.454Z" style="fill:#80fff7;"/><path d="M470.438,51.348c8.35,0 15.182,6.832 15.182,15.182l-0,121.454c-0,8.35 -6.832,15.182 -15.182,15.182c-8.35,-0 -15.182,-6.832 -15.182,-15.182l0,-106.272l-106.272,-0c-8.35,-0 -15.182,-6.832 -15.182,-15.182c0,-8.35 6.832,-15.182 15.182,-15.182l121.454,0Z" style="fill:#80fff7;"/></g><g><path d="M455.256,339.802c0,-8.35 6.832,-15.182 15.182,-15.182c8.35,-0 15.182,6.832 15.182,15.182l-0,121.454c-0,8.35 -6.832,15.182 -15.182,15.182l-121.454,-0c-8.35,-0 -15.182,-6.832 -15.182,-15.182c0,-8.35 6.832,-15.182 15.182,-15.182l106.272,0l0,-106.272Z" style="fill:#ddffeb;"/><path d="M197.166,51.348c8.35,0 15.182,6.832 15.182,15.182c0,8.35 -6.832,15.182 -15.182,15.182l-106.272,-0l-0,106.272c-0,8.35 -6.832,15.182 -15.182,15.182c-8.35,-0 -15.182,-6.832 -15.182,-15.182l0,-121.454c0,-8.35 6.832,-15.182 15.182,-15.182l121.454,0Z" style="fill:#ddffeb;"/></g></g></g><g><path d="M203.972,254.644l46.011,0c4.335,0 8.439,2.024 11.098,5.492c2.659,3.468 3.468,7.976 2.254,12.138l-25.895,90.75l105.894,-89.883l-47.109,0c-4.335,0 -8.439,-2.023 -11.098,-5.491c-2.659,-3.468 -3.468,-7.977 -2.254,-12.138l25.837,-90.461l-104.738,89.593Z" style="fill:#ddffeb;fill-rule:nonzero;"/><path d="M329.577,115.919c11.04,-0 19.017,10.577 15.953,21.155l-30.924,108.322l49.248,0c11.156,0 20.173,9.017 20.173,20.173c-0,5.954 -2.601,11.561 -7.11,15.376l-149.535,126.992c-3.005,2.543 -6.82,3.93 -10.751,3.93c-11.04,0 -19.017,-10.578 -15.953,-21.156l30.924,-108.321l-49.941,-0c-10.81,-0 -19.538,-8.729 -19.538,-19.48c0,-5.722 2.486,-11.098 6.821,-14.797l149.882,-128.206c3.005,-2.601 6.82,-3.988 10.751,-3.988Zm-20.867,49.132l-104.738,89.593l46.011,0c4.335,0 8.439,2.024 11.098,5.492c2.659,3.468 3.468,7.976 2.254,12.138l-25.895,90.75l105.894,-89.883l-47.109,0c-4.335,0 -8.439,-2.023 -11.098,-5.491c-2.659,-3.468 -3.468,-7.977 -2.254,-12.138l25.837,-90.461Z" style="fill:#80fff7;fill-rule:nonzero;"/></g></g><g><g id="Final-Edges1" serif:id="Final Edges" opacity="0.75"><g id="Full-Trans-Semi1" serif:id="Full Trans Semi" opacity="0.5"><g><path d="M60.53,339.802c0,-8.35 6.832,-15.182 15.182,-15.182c8.35,-0 15.182,6.832 15.182,15.182l-0,106.272l106.272,0c8.35,0 15.182,6.832 15.182,15.182c0,8.35 -6.832,15.182 -15.182,15.182l-121.454,-0c-8.35,-0 -15.182,-6.832 -15.182,-15.182l0,-121.454Z" style="fill:#009df1;"/><path d="M470.438,51.348c8.35,0 15.182,6.832 15.182,15.182l-0,121.454c-0,8.35 -6.832,15.182 -15.182,15.182c-8.35,-0 -15.182,-6.832 -15.182,-15.182l0,-106.272l-106.272,-0c-8.35,-0 -15.182,-6.832 -15.182,-15.182c0,-8.35 6.832,-15.182 15.182,-15.182l121.454,0Z" style="fill:#009df1;"/></g><g opacity="0.8"><path d="M455.256,339.802c0,-8.35 6.832,-15.182 15.182,-15.182c8.35,-0 15.182,6.832 15.182,15.182l-0,121.454c-0,8.35 -6.832,15.182 -15.182,15.182l-121.454,-0c-8.35,-0 -15.182,-6.832 -15.182,-15.182c0,-8.35 6.832,-15.182 15.182,-15.182l106.272,0l0,-106.272Z" style="fill:#19f780;"/><path d="M197.166,51.348c8.35,0 15.182,6.832 15.182,15.182c0,8.35 -6.832,15.182 -15.182,15.182l-106.272,-0l-0,106.272c-0,8.35 -6.832,15.182 -15.182,15.182c-8.35,-0 -15.182,-6.832 -15.182,-15.182l0,-121.454c0,-8.35 6.832,-15.182 15.182,-15.182l121.454,0Z" style="fill:#19f780;"/></g></g><g id="Mini-Opaque-Semi" serif:id="Mini Opaque Semi" opacity="0.9"><g><path d="M60.53,392.938c0,-8.35 6.832,-15.182 15.182,-15.182c8.35,0 15.182,6.832 15.182,15.182l-0,53.136l53.136,0c8.35,0 15.182,6.832 15.182,15.182c-0,8.35 -6.832,15.182 -15.182,15.182l-68.318,-0c-8.35,-0 -15.182,-6.832 -15.182,-15.182l0,-68.318Z" style="fill:#009df1;"/><path d="M470.438,51.348c8.35,0 15.182,6.832 15.182,15.182l-0,68.318c-0,8.35 -6.832,15.182 -15.182,15.182c-8.35,-0 -15.182,-6.832 -15.182,-15.182l0,-53.136l-53.136,-0c-8.35,-0 -15.182,-6.832 -15.182,-15.182c0,-8.35 6.832,-15.182 15.182,-15.182l68.318,0Z" style="fill:#009df1;"/></g><g><path d="M455.256,392.938c0,-8.35 6.832,-15.182 15.182,-15.182c8.35,0 15.182,6.832 15.182,15.182l-0,68.318c-0,8.35 -6.832,15.182 -15.182,15.182l-68.318,-0c-8.35,-0 -15.182,-6.832 -15.182,-15.182c0,-8.35 6.832,-15.182 15.182,-15.182l53.136,0l0,-53.136Z" style="fill:#05e462;"/><path d="M144.03,51.348c8.35,0 15.182,6.832 15.182,15.182c-0,8.35 -6.832,15.182 -15.182,15.182l-53.136,-0l-0,53.136c-0,8.35 -6.832,15.182 -15.182,15.182c-8.35,-0 -15.182,-6.832 -15.182,-15.182l0,-68.318c0,-8.35 6.832,-15.182 15.182,-15.182l68.318,0Z" style="fill:#05e462;"/></g></g></g><g><path d="M203.972,254.644l46.011,0c4.335,0 8.439,2.024 11.098,5.492c2.659,3.468 3.468,7.976 2.254,12.138l-25.895,90.75l105.894,-89.883l-47.109,0c-4.335,0 -8.439,-2.023 -11.098,-5.491c-2.659,-3.468 -3.468,-7.977 -2.254,-12.138l25.837,-90.461l-104.738,89.593Z" style="fill:#05e462;fill-opacity:0.8;fill-rule:nonzero;"/><path d="M329.577,115.919c11.04,-0 19.017,10.577 15.953,21.155l-30.924,108.322l49.248,0c11.156,0 20.173,9.017 20.173,20.173c-0,5.954 -2.601,11.561 -7.11,15.376l-149.535,126.992c-3.005,2.543 -6.82,3.93 -10.751,3.93c-11.04,0 -19.017,-10.578 -15.953,-21.156l30.924,-108.321l-49.941,-0c-10.81,-0 -19.538,-8.729 -19.538,-19.48c0,-5.722 2.486,-11.098 6.821,-14.797l149.882,-128.206c3.005,-2.601 6.82,-3.988 10.751,-3.988Zm-20.867,49.132l-104.738,89.593l46.011,0c4.335,0 8.439,2.024 11.098,5.492c2.659,3.468 3.468,7.976 2.254,12.138l-25.895,90.75l105.894,-89.883l-47.109,0c-4.335,0 -8.439,-2.023 -11.098,-5.491c-2.659,-3.468 -3.468,-7.977 -2.254,-12.138l25.837,-90.461Z" style="fill:#009df1;fill-opacity:0.6;fill-rule:nonzero;"/></g></g></g><g id="Final-Text" serif:id="Final Text" opacity="0.9"><g><path d="M590,447.561l51.534,-192.326l128.89,0l-8.422,31.43l-89.387,-0l-13.057,48.73l77.853,0l-8.499,31.718l-78.141,0l-13.135,49.019l89.676,-0l-8.422,31.429l-128.89,0Z" style="fill:#44ff92;fill-rule:nonzero;"/><path d="M842.724,387.874l-57.803,59.687l-39.215,0l85.842,-83.62l11.176,23.933Zm52.922,59.687l-43.829,0l-65.729,-145.326l43.828,0l65.73,145.326Zm-58.099,-84.485l94.509,-95.207l39.215,-0l-123.068,120.005l-10.656,-24.798Z" style="fill:#44ff92;fill-rule:nonzero;"/><path d="M996.061,451.598c-3.268,0 -7.551,-0.336 -12.849,-1.009c-5.298,-0.673 -10.525,-1.97 -15.681,-3.893c-5.156,-1.922 -9.263,-4.709 -12.321,-8.362l11.242,-11.822l-20.397,76.123l-36.044,0l45.817,-170.988c1.648,-6.152 4.913,-11.342 9.795,-15.571c4.881,-4.229 10.806,-7.689 17.775,-10.38c6.969,-2.692 14.561,-4.662 22.777,-5.912c8.216,-1.249 16.554,-1.874 25.012,-1.874c13.648,0 25.246,2.451 34.793,7.353c9.548,4.902 15.913,13.072 19.096,24.509c3.183,11.438 2.096,27.153 -3.261,47.145c-4.018,14.994 -10.128,28.113 -18.332,39.359c-8.203,11.245 -17.983,19.944 -29.339,26.095c-11.356,6.151 -24.05,9.227 -38.083,9.227Zm-0.903,-29.988c8.458,0 15.912,-1.634 22.363,-4.902c6.45,-3.268 11.97,-8.266 16.56,-14.994c4.59,-6.728 8.302,-15.378 11.135,-25.951c2.472,-9.227 3.639,-17.348 3.501,-24.365c-0.139,-7.016 -2.323,-12.495 -6.553,-16.435c-4.231,-3.941 -11.152,-5.911 -20.763,-5.911c-9.42,-0 -16.838,0.961 -22.255,2.883c-5.417,1.922 -8.589,4.613 -9.516,8.074l-19.933,74.393c3.751,2.499 7.876,4.325 12.372,5.478c4.497,1.154 8.86,1.73 13.089,1.73Z" style="fill:#44ff92;fill-rule:nonzero;"/><path d="M1095.47,447.561l35.154,-131.197c3.206,-1.922 8.595,-4.277 16.166,-7.064c7.571,-2.787 16.17,-5.286 25.797,-7.497c9.627,-2.211 19.054,-3.316 28.281,-3.316c6.921,-0 12.306,0.529 16.155,1.586c3.85,1.057 6.818,2.355 8.905,3.892l-7.417,27.682c-3.69,-0.577 -7.935,-1.058 -12.733,-1.442c-4.799,-0.385 -9.759,-0.529 -14.878,-0.433c-5.12,0.096 -10.087,0.337 -14.899,0.721c-4.813,0.385 -9.123,0.865 -12.93,1.442l-30.982,115.626l-36.619,0Z" style="fill:#44ff92;fill-rule:nonzero;"/><path d="M1271.64,451.886c-14.417,0 -26.258,-2.979 -35.522,-8.938c-9.265,-5.959 -15.37,-14.562 -18.316,-25.807c-2.946,-11.246 -2.281,-24.846 1.994,-40.801c6.799,-25.374 18.105,-44.79 33.917,-58.246c15.812,-13.456 34.868,-20.184 57.166,-20.184c15.763,0 27.619,3.46 35.569,10.381c7.949,6.92 12.409,16.82 13.379,29.699c0.971,12.88 -1.01,28.162 -5.941,45.847l-112.454,0l4.049,-24.798l85.927,0l-9.702,10.381c3.685,-15.186 3.965,-26.095 0.84,-32.727c-3.125,-6.632 -10.07,-9.948 -20.835,-9.948c-6.535,-0 -12.605,1.49 -18.21,4.469c-5.604,2.98 -10.63,7.93 -15.08,14.85c-4.449,6.92 -8.296,16.436 -11.541,28.546c-4.018,14.994 -3.575,26.432 1.33,34.313c4.905,7.881 14.662,11.822 29.271,11.822c5.959,0 11.833,-0.577 17.62,-1.73c5.788,-1.153 11.281,-2.643 16.48,-4.469c5.199,-1.826 9.735,-3.508 13.607,-5.046l-8.731,32.583c-7.693,2.883 -16.013,5.238 -24.96,7.064c-8.948,1.826 -18.9,2.739 -29.857,2.739Z" style="fill:#44ff92;fill-rule:nonzero;"/><path d="M1410.91,451.886c-10.38,0 -18.926,-1.105 -25.639,-3.316c-6.712,-2.21 -13.02,-4.853 -18.924,-7.929l8.885,-33.16c3.649,2.884 7.576,5.623 11.783,8.218c4.206,2.595 8.939,4.662 14.197,6.2c5.259,1.537 11.253,2.306 17.981,2.306c7.497,0 13.506,-1.441 18.027,-4.325c4.521,-2.883 7.374,-6.536 8.558,-10.957c1.031,-3.845 0.4,-6.872 -1.891,-9.083c-2.291,-2.21 -5.537,-4.085 -9.739,-5.623c-4.201,-1.537 -8.691,-3.075 -13.469,-4.613c-4.497,-1.153 -8.939,-2.691 -13.325,-4.614c-4.387,-1.922 -8.161,-4.517 -11.322,-7.785c-3.162,-3.268 -5.261,-7.449 -6.299,-12.543c-1.038,-5.094 -0.578,-11.293 1.379,-18.598c2.318,-8.65 6.005,-15.955 11.062,-21.914c5.057,-5.959 10.923,-10.813 17.598,-14.562c6.675,-3.748 13.548,-6.439 20.618,-8.073c7.069,-1.634 13.75,-2.355 20.042,-2.163c11.098,0.192 19.702,1.442 25.812,3.748c6.11,2.307 11.707,5.095 16.79,8.362l-8.035,29.988c-5.749,-3.652 -11.349,-6.968 -16.798,-9.948c-5.449,-2.979 -12.306,-4.469 -20.572,-4.469c-7.497,0 -13.66,1.298 -18.488,3.893c-4.829,2.595 -7.861,6.199 -9.097,10.813c-1.082,4.037 -0.695,7.256 1.16,9.659c1.855,2.403 4.656,4.325 8.403,5.767c3.747,1.442 7.842,2.836 12.288,4.181c4.445,1.346 8.996,2.836 13.652,4.469c4.656,1.634 8.844,3.941 12.563,6.921c3.719,2.979 6.277,7.064 7.673,12.254c1.397,5.191 0.988,11.919 -1.227,20.185c-3.231,11.341 -8.693,20.424 -16.384,27.248c-7.692,6.824 -16.563,11.774 -26.614,14.85c-10.051,3.076 -20.267,4.613 -30.648,4.613Z" style="fill:#44ff92;fill-rule:nonzero;"/><path d="M1547.88,451.886c-10.38,0 -18.927,-1.105 -25.639,-3.316c-6.712,-2.21 -13.02,-4.853 -18.924,-7.929l8.885,-33.16c3.648,2.884 7.576,5.623 11.782,8.218c4.207,2.595 8.94,4.662 14.198,6.2c5.259,1.537 11.252,2.306 17.98,2.306c7.497,0 13.506,-1.441 18.028,-4.325c4.521,-2.883 7.374,-6.536 8.558,-10.957c1.03,-3.845 0.4,-6.872 -1.891,-9.083c-2.291,-2.21 -5.538,-4.085 -9.739,-5.623c-4.201,-1.537 -8.691,-3.075 -13.469,-4.613c-4.497,-1.153 -8.939,-2.691 -13.326,-4.614c-4.386,-1.922 -8.16,-4.517 -11.322,-7.785c-3.161,-3.268 -5.26,-7.449 -6.298,-12.543c-1.038,-5.094 -0.579,-11.293 1.379,-18.598c2.318,-8.65 6.005,-15.955 11.062,-21.914c5.057,-5.959 10.923,-10.813 17.598,-14.562c6.675,-3.748 13.548,-6.439 20.617,-8.073c7.07,-1.634 13.751,-2.355 20.043,-2.163c11.098,0.192 19.702,1.442 25.812,3.748c6.11,2.307 11.707,5.095 16.79,8.362l-8.035,29.988c-5.75,-3.652 -11.349,-6.968 -16.798,-9.948c-5.449,-2.979 -12.307,-4.469 -20.572,-4.469c-7.497,0 -13.66,1.298 -18.488,3.893c-4.829,2.595 -7.861,6.199 -9.097,10.813c-1.082,4.037 -0.695,7.256 1.16,9.659c1.855,2.403 4.656,4.325 8.403,5.767c3.746,1.442 7.842,2.836 12.288,4.181c4.445,1.346 8.995,2.836 13.652,4.469c4.656,1.634 8.844,3.941 12.563,6.921c3.719,2.979 6.277,7.064 7.673,12.254c1.397,5.191 0.988,11.919 -1.227,20.185c-3.231,11.341 -8.693,20.424 -16.384,27.248c-7.692,6.824 -16.563,11.774 -26.614,14.85c-10.051,3.076 -20.267,4.613 -30.648,4.613Z" style="fill:#44ff92;fill-rule:nonzero;"/></g><g><path d="M665.643,157.986l0,39.619l-23.529,-0l0,-115.396l48.788,0c13.379,0 23.789,3.057 31.228,9.169c7.439,6.113 11.159,15.398 11.159,27.855c-0,12.456 -3.72,22.029 -11.159,28.719c-7.439,6.689 -17.849,10.034 -31.228,10.034l-25.259,0Zm0,-19.031l22.318,0c4.037,0 7.353,-0.461 9.948,-1.384c2.595,-0.922 4.642,-2.278 6.142,-4.065c1.499,-1.788 2.566,-3.778 3.2,-5.969c0.635,-2.192 0.952,-4.556 0.952,-7.093c-0,-2.653 -0.317,-5.133 -0.952,-7.44c-0.634,-2.306 -1.701,-4.383 -3.2,-6.228c-1.5,-1.845 -3.547,-3.258 -6.142,-4.239c-2.595,-0.98 -5.911,-1.47 -9.948,-1.47l-22.318,-0l0,37.888Z" style="fill:#31baff;fill-rule:nonzero;"/><path d="M792.111,200.2c-14.417,-0 -25.201,-3.979 -32.352,-11.938c-7.151,-7.958 -10.726,-19.434 -10.726,-34.428c-0,-16.147 3.662,-27.854 10.986,-35.12c7.324,-7.267 17.963,-10.9 31.919,-10.9c9.689,0 17.734,1.701 24.135,5.104c6.401,3.402 11.216,8.506 14.446,15.311c3.229,6.805 4.844,15.34 4.844,25.605c0,14.994 -3.748,26.47 -11.245,34.428c-7.497,7.959 -18.166,11.938 -32.007,11.938Zm-0.173,-17.993c5.075,0 9.199,-1.153 12.37,-3.46c3.172,-2.307 5.508,-5.594 7.007,-9.861c1.5,-4.268 2.249,-9.285 2.249,-15.052c0,-6.574 -0.778,-11.938 -2.335,-16.09c-1.557,-4.152 -3.922,-7.208 -7.094,-9.169c-3.171,-1.961 -7.237,-2.941 -12.197,-2.941c-5.075,-0 -9.169,1.038 -12.283,3.114c-3.114,2.076 -5.363,5.19 -6.747,9.342c-1.384,4.152 -2.077,9.4 -2.077,15.744c0,9.112 1.644,16.118 4.931,21.02c3.287,4.902 8.679,7.353 16.176,7.353Z" style="fill:#31baff;fill-rule:nonzero;"/><rect x="854.74" y="77.365" width="21.799" height="120.24" style="fill:#31baff;fill-rule:nonzero;"/><path d="M933.458,200.2c-4.96,-0 -9.631,-0.462 -14.014,-1.384c-4.382,-0.923 -8.304,-2.48 -11.764,-4.671c-3.46,-2.192 -6.199,-5.162 -8.218,-8.91c-2.018,-3.749 -3.027,-8.391 -3.027,-13.927c-0,-5.998 1.211,-11.044 3.633,-15.138c2.422,-4.095 5.968,-7.209 10.64,-9.343c4.671,-2.134 10.409,-3.2 17.214,-3.2c4.152,-0 8.016,0.374 11.591,1.124c3.576,0.75 6.805,1.788 9.689,3.114c2.883,1.327 5.248,2.739 7.093,4.239l1.557,12.283c-2.422,-1.614 -5.507,-2.912 -9.256,-3.892c-3.748,-0.981 -7.814,-1.471 -12.197,-1.471c-6.113,0 -10.669,0.981 -13.667,2.941c-2.999,1.961 -4.499,5.017 -4.499,9.17c0,2.768 0.808,5.132 2.423,7.093c1.614,1.961 3.69,3.402 6.228,4.325c2.537,0.923 5.19,1.384 7.958,1.384c6.344,0 10.928,-0.432 13.754,-1.297c2.826,-0.865 4.239,-2.74 4.239,-5.623l-0,-34.256c-0,-5.651 -1.788,-9.774 -5.363,-12.37c-3.576,-2.595 -8.593,-3.892 -15.052,-3.892c-4.96,-0 -10.034,0.836 -15.225,2.508c-5.19,1.673 -9.4,3.835 -12.629,6.488l-0,-19.896c3.114,-2.076 7.785,-3.835 14.013,-5.276c6.229,-1.442 12.918,-2.163 20.069,-2.163c2.999,0 6.171,0.26 9.516,0.779c3.344,0.519 6.574,1.413 9.688,2.681c3.114,1.269 5.94,3.057 8.477,5.363c2.538,2.307 4.556,5.162 6.056,8.564c1.499,3.403 2.249,7.526 2.249,12.37l-0.173,41.349c-0,5.305 -1.702,9.486 -5.104,12.543c-3.402,3.056 -8.189,5.219 -14.36,6.488c-6.17,1.268 -13.35,1.903 -21.539,1.903Z" style="fill:#31baff;fill-rule:nonzero;"/><path d="M998.855,197.605l-0,-78.718c1.614,-1.154 4.469,-2.567 8.564,-4.239c4.094,-1.673 8.852,-3.172 14.273,-4.498c5.42,-1.327 10.899,-1.99 16.435,-1.99c4.152,0 7.468,0.317 9.948,0.952c2.48,0.634 4.469,1.413 5.969,2.335l-0,16.609c-2.307,-0.346 -4.931,-0.634 -7.872,-0.865c-2.941,-0.231 -5.94,-0.317 -8.996,-0.26c-3.057,0.058 -5.998,0.202 -8.824,0.433c-2.825,0.231 -5.334,0.519 -7.525,0.865l-0,69.376l-21.972,-0Z" style="fill:#31baff;fill-rule:nonzero;"/><path d="M1071,197.605l-0,-86.331l21.971,0l0.173,86.331l-22.144,-0Zm-0.519,-100.171l-0,-18.166l23.009,-0l0,18.166l-23.009,-0Z" style="fill:#31baff;fill-rule:nonzero;"/><path d="M1143.32,200.2c-6.228,-0 -11.533,-0.663 -15.916,-1.99c-4.383,-1.326 -8.593,-2.912 -12.63,-4.757l0,-19.896c2.653,1.73 5.45,3.373 8.391,4.93c2.941,1.557 6.113,2.797 9.516,3.72c3.402,0.923 7.122,1.384 11.158,1.384c4.499,0 7.872,-0.865 10.121,-2.595c2.249,-1.73 3.374,-3.921 3.374,-6.574c0,-2.307 -0.865,-4.124 -2.595,-5.45c-1.73,-1.326 -3.979,-2.451 -6.747,-3.374c-2.768,-0.922 -5.71,-1.845 -8.824,-2.768c-2.883,-0.692 -5.795,-1.614 -8.737,-2.768c-2.941,-1.153 -5.622,-2.71 -8.044,-4.671c-2.422,-1.961 -4.354,-4.469 -5.796,-7.526c-1.442,-3.056 -2.163,-6.776 -2.163,-11.159c0,-5.19 1.038,-9.573 3.114,-13.148c2.077,-3.576 4.816,-6.488 8.218,-8.737c3.403,-2.249 7.094,-3.864 11.073,-4.844c3.979,-0.981 7.872,-1.413 11.678,-1.298c6.689,0.115 12.052,0.865 16.089,2.249c4.037,1.384 7.843,3.057 11.419,5.017l-0,17.993c-4.037,-2.191 -7.93,-4.181 -11.678,-5.969c-3.749,-1.787 -8.103,-2.681 -13.062,-2.681c-4.498,-0 -7.987,0.778 -10.467,2.335c-2.48,1.557 -3.72,3.72 -3.72,6.488c0,2.422 0.75,4.354 2.249,5.796c1.5,1.442 3.489,2.595 5.969,3.46c2.48,0.865 5.161,1.701 8.045,2.509c2.883,0.807 5.853,1.701 8.91,2.681c3.056,0.981 5.94,2.365 8.65,4.152c2.711,1.788 4.902,4.239 6.574,7.353c1.673,3.114 2.509,7.151 2.509,12.111c-0.115,6.805 -1.932,12.254 -5.45,16.349c-3.518,4.094 -8.045,7.064 -13.581,8.91c-5.536,1.845 -11.418,2.768 -17.647,2.768Z" style="fill:#31baff;fill-rule:nonzero;"/></g></g></g></svg>