<?xml version="1.0" encoding="UTF-8" standalone="no"?>
<!DOCTYPE svg PUBLIC "-//W3C//DTD SVG 1.1//EN" "http://www.w3.org/Graphics/SVG/1.1/DTD/svg11.dtd">
<svg width="100%" height="100%" viewBox="0 0 1500 1500" version="1.1" xmlns="http://www.w3.org/2000/svg" xmlns:xlink="http://www.w3.org/1999/xlink" xml:space="preserve" xmlns:serif="http://www.serif.com/" style="fill-rule:evenodd;clip-rule:evenodd;stroke-linejoin:round;stroke-miterlimit:2;">
    <g transform="matrix(6.48044e-17,-1.05834,1.05834,6.48044e-17,-0.719725,1500)">
        <g id="Multicolor">
            <g>
                <path d="M349.922,855.652L354.07,781.441L354.873,767.295L340.721,766.504L280.573,763.127L284.722,688.934L270.569,688.143L265.624,776.488L279.771,777.285L339.924,780.65L335.774,854.85L349.922,855.652Z" style="fill:rgb(70,236,140);fill-rule:nonzero;"/>
                <path d="M228.854,1005.75L238.87,995.705L186.231,943.246L176.204,933.231L166.188,943.272L123.657,985.926L71.033,933.453L61.017,943.492L123.683,1005.97L133.698,995.94L176.235,953.274L228.854,1005.75Z" style="fill:rgb(70,236,140);fill-rule:nonzero;"/>
                <path d="M357.775,1107.61L403.832,1049.29L392.705,1040.5L337.86,1109.95L348.977,1118.73L396.262,1156.07L350.205,1214.4L361.332,1223.18L407.375,1164.85L416.156,1153.73L405.047,1144.95L357.775,1107.61Z" style="fill:rgb(70,236,140);fill-rule:nonzero;"/>
                <path d="M1324.69,1095.86L1376.73,1042.8L1366.62,1032.87L1304.64,1096.04L1314.76,1105.97L1357.77,1148.16L1305.74,1201.21L1315.86,1211.14L1367.89,1158.08L1377.81,1147.96L1367.7,1138.04L1324.69,1095.86Z" style="fill:rgb(70,236,140);fill-rule:nonzero;"/>
                <path d="M586.84,147.977L572.676,148.545L576.17,236.971L590.334,236.41L650.543,234.014L653.494,308.275L667.652,307.719L664.689,233.457L664.127,219.299L649.982,219.856L589.785,222.238L586.84,147.977Z" style="fill:rgb(70,236,140);fill-rule:nonzero;"/>
                <path d="M1013.12,649.039L1024.85,641.08L1016.91,629.354L983.119,579.483L1044.64,537.791L1036.69,526.059L963.43,575.703L971.369,587.43L1005.18,637.301L943.652,678.992L951.592,690.742L1013.12,649.039Z" style="fill:rgb(70,236,140);fill-rule:nonzero;"/>
                <path d="M1001,1161.14L986.836,1161.7L926.658,1164.09L923.713,1089.82L909.549,1090.39L913.045,1178.81L927.209,1178.25L987.404,1175.86L990.35,1250.12L1004.53,1249.56L1001.56,1175.3L1001,1161.14Z" style="fill:rgb(70,236,140);fill-rule:nonzero;"/>
                <path d="M1220.78,210.791L1296.11,257.231L1303.53,245.164L1335.15,193.873L1398.42,232.883L1405.86,220.807L1342.59,181.815L1330.53,174.379L1323.09,186.445L1291.47,237.725L1228.21,198.719L1220.78,210.791Z" style="fill:rgb(70,236,140);fill-rule:nonzero;"/>
                <path d="M664.781,376.721L653.348,385.1L604.766,420.703L560.826,360.772L549.391,369.15L601.715,440.529L613.139,432.145L661.732,396.529L705.67,456.453L717.105,448.08L673.168,388.15L664.781,376.721Z" style="fill:rgb(70,236,140);fill-rule:nonzero;"/>
                <path d="M1259.22,808.264L1185.98,795.717L1172.01,793.334L1169.61,807.293L1159.43,866.668L1086.19,854.115L1083.78,868.09L1171.01,883.037L1173.4,869.065L1183.58,809.69L1256.82,822.242L1259.22,808.264Z" style="fill:rgb(70,236,140);fill-rule:nonzero;"/>
                <path d="M905.918,258.514L910.531,318.568L836.424,324.262L837.504,338.395L925.746,331.621L924.658,317.5L920.053,257.434L994.141,251.74L993.072,237.602L918.959,243.301L904.838,244.387L905.918,258.514Z" style="fill:rgb(70,236,140);fill-rule:nonzero;"/>
                <path d="M791.818,1270.82L777.654,1271.3L778.141,1285.47L780.203,1345.67L705.936,1348.22L706.424,1362.39L794.855,1359.35L794.361,1345.19L792.307,1284.98L866.574,1282.43L866.098,1268.26L791.818,1270.82Z" style="fill:rgb(70,236,140);fill-rule:nonzero;"/>
                <path d="M134.321,1288.8L120.188,1289.87L60.128,1294.43L54.484,1220.32L40.369,1221.4L47.062,1309.64L61.197,1308.57L121.257,1304L126.899,1378.1L141.034,1377.04L135.39,1302.92L134.321,1288.8Z" style="fill:rgb(70,236,140);fill-rule:nonzero;"/>
                <path d="M519.104,15.76L534.189,0.67L514.146,0.67L509.078,5.727L519.104,15.76Z" style="fill:rgb(70,236,140);fill-rule:nonzero;"/>
                <path d="M115.669,363.254L152.216,282.664L139.298,276.791L108.616,344.496L40.382,313.561L34.529,326.479L115.124,363.014L115.669,363.254Z" style="fill:rgb(70,236,140);fill-rule:nonzero;"/>
                <path d="M730.955,525.875L767.49,445.283L754.586,439.418L723.891,507.115L655.668,476.188L649.814,489.098L730.412,525.627L730.955,525.875Z" style="fill:rgb(70,236,140);fill-rule:nonzero;"/>
                <path d="M902.35,731.328L915.119,725.16L876.619,645.483L876.367,644.945L796.678,683.443L802.84,696.207L869.754,663.877L902.35,731.328Z" style="fill:rgb(70,236,140);fill-rule:nonzero;"/>
                <path d="M41.982,967.377L3.476,887.699L3.23,887.168L0,888.731L0,913.033L29.224,973.539L41.982,967.377Z" style="fill:rgb(70,236,140);fill-rule:nonzero;"/>
                <path d="M1294.41,531.066L1220.24,526.213L1225.13,451.465L1210.99,450.531L1205.21,538.834L1205.18,539.428L1293.49,545.213L1294.41,531.066Z" style="fill:rgb(70,236,140);fill-rule:nonzero;"/>
                <path d="M1207.58,967.217L1136.23,914.856L1135.76,914.51L1083.39,985.844L1094.8,994.236L1138.79,934.318L1199.18,978.645L1207.58,967.217Z" style="fill:rgb(70,236,140);fill-rule:nonzero;"/>
                <path d="M953.42,1284.67L895.459,1217.8L884.752,1227.08L933.432,1283.25L876.824,1332.31L886.111,1343.03L952.975,1285.06L953.42,1284.67Z" style="fill:rgb(70,236,140);fill-rule:nonzero;"/>
                <path d="M110.71,757.242L119.255,669.168L105.153,667.791L97.965,741.775L23.402,734.533L22.025,748.654L110.118,757.188L110.71,757.242Z" style="fill:rgb(70,236,140);fill-rule:nonzero;"/>
                <path d="M193.622,1097.95L278.042,1071.36L273.788,1057.83L202.884,1080.17L180.384,1008.72L166.856,1012.98L193.45,1097.38L193.622,1097.95Z" style="fill:rgb(70,236,140);fill-rule:nonzero;"/>
                <path d="M203.509,519.285L277.091,508.746L287.71,582.897L301.745,580.891L289.192,493.297L289.106,492.705L201.507,505.252L203.509,519.285Z" style="fill:rgb(70,236,140);fill-rule:nonzero;"/>
                <path d="M768.021,1248.78L821.951,1178.61L810.719,1169.96L765.416,1228.91L706.021,1183.26L697.371,1194.5L767.553,1248.42L768.021,1248.78Z" style="fill:rgb(70,236,140);fill-rule:nonzero;"/>
                <path d="M848.186,853.109L796.115,781.565L784.631,789.906L828.396,849.998L767.818,894.09L776.16,905.557L847.699,853.467L848.186,853.109Z" style="fill:rgb(70,236,140);fill-rule:nonzero;"/>
                <path d="M462.324,438.918L463.33,527.406L477.506,527.244L476.648,452.928L551.553,452.068L551.404,437.893L462.916,438.912L462.324,438.918Z" style="fill:rgb(70,236,140);fill-rule:nonzero;"/>
                <path d="M1025.49,1286.15L1024.9,1286.16L1025.89,1374.65L1040.07,1374.49L1039.22,1300.17L1114.13,1299.31L1113.96,1285.13L1025.49,1286.15Z" style="fill:rgb(70,236,140);fill-rule:nonzero;"/>
                <path d="M195.079,190.074L256.368,126.248L246.132,116.424L194.659,170.039L140.62,118.166L130.796,128.385L194.647,189.668L195.079,190.074Z" style="fill:rgb(70,236,140);fill-rule:nonzero;"/>
                <path d="M333.935,120.143L403.658,147.531L408.857,134.35L326.487,101.988L325.938,101.772L293.552,184.129L306.753,189.316L333.935,120.143Z" style="fill:rgb(70,236,140);fill-rule:nonzero;"/>
                <path d="M893.342,57.026L900.836,0.67L886.543,0.67L879.281,55.149L893.342,57.026Z" style="fill:rgb(70,236,140);fill-rule:nonzero;"/>
                <path d="M1036.31,48.376L1071.5,0.67L1053.89,0.67L1024.9,39.96L1036.31,48.376Z" style="fill:rgb(70,236,140);fill-rule:nonzero;"/>
                <path d="M1140.32,32.581L1148.73,21.182L1163.88,0.67L1146.26,0.67L1137.34,12.766L1120.94,0.67L1097.08,0.67L1128.91,24.17L1140.32,32.581Z" style="fill:rgb(70,236,140);fill-rule:nonzero;"/>
                <path d="M1252.68,5.51L1246.11,0.67L1222.24,0.67L1244.26,16.915L1252.68,5.51Z" style="fill:rgb(70,236,140);fill-rule:nonzero;"/>
                <path d="M244.427,183.746L234.69,194.045L193.356,237.742L139.36,186.66L139.255,186.766L134.501,191.816L78.443,251.063L88.735,260.793L139.923,206.697L183.614,248.029L193.907,257.774L203.638,247.475L244.989,203.789L298.985,254.854L308.724,244.566L254.72,193.49L244.427,183.746Z" style="fill:rgb(70,236,140);fill-rule:nonzero;"/>
                <path d="M436.396,1012.73L436.291,998.559L422.127,998.662L361.98,999.108L361.418,924.791L361.281,924.791L354.336,924.852L272.78,925.451L272.886,939.627L347.359,939.072L347.803,999.213L347.908,1013.39L362.084,1013.29L422.232,1012.83L422.781,1087.16L436.959,1087.05L436.396,1012.73Z" style="fill:rgb(70,236,140);fill-rule:nonzero;"/>
                <path d="M706.307,164.525L697.922,175.947L709.357,184.332L757.846,219.904L713.906,279.848L725.33,288.215L769.281,228.283L777.666,216.854L766.23,208.469L717.729,172.904L761.686,112.967L761.563,112.881L755.969,108.787L690.203,60.545L681.818,71.981L741.879,116.024L706.307,164.525Z" style="fill:rgb(70,236,140);fill-rule:nonzero;"/>
                <path d="M725.33,1022.34L769.281,962.4L777.666,950.977L766.23,942.592L717.729,907.02L761.686,847.096L761.563,847.01L755.969,842.908L690.203,794.666L681.818,806.102L741.879,850.145L706.307,898.652L697.922,910.076L709.357,918.461L757.846,954.022L713.906,1013.96L725.33,1022.34Z" style="fill:rgb(70,236,140);fill-rule:nonzero;"/>
                <path d="M1000.97,491.957L1011.89,482.924L1002.87,472.008L964.51,425.666L1021.77,378.277L1021.69,378.172L1017.25,372.83L965.25,309.986L954.352,319.025L1001.83,376.4L955.488,414.75L944.559,423.783L953.592,434.707L991.938,481.041L934.691,528.43L943.725,539.348L1000.97,491.957Z" style="fill:rgb(70,236,140);fill-rule:nonzero;"/>
                <path d="M444.219,608.09L454.857,617.449L464.219,606.816L503.965,561.674L559.758,610.787L569.119,600.149L513.331,551.035L502.693,541.676L493.326,552.315L453.58,597.449L397.787,548.344L397.699,548.455L393.125,553.666L339.209,614.881L349.865,624.242L399.076,568.344L444.219,608.09Z" style="fill:rgb(70,236,140);fill-rule:nonzero;"/>
                <path d="M1308.17,279.668L1294.99,284.867L1300.19,298.051L1322.29,353.992L1253.15,381.297L1253.21,381.432L1255.77,387.871L1285.71,463.74L1298.89,458.533L1271.55,389.262L1327.49,367.168L1340.67,361.969L1335.46,348.787L1313.37,292.846L1382.5,265.541L1377.29,252.365L1308.17,279.668Z" style="fill:rgb(70,236,140);fill-rule:nonzero;"/>
                <path d="M73.761,677.867L43.759,609.707L98.811,585.465L111.772,579.76L106.073,566.793L81.832,511.74L149.862,481.787L144.146,468.82L76.132,498.768L63.154,504.479L68.871,517.451L93.094,572.504L25.082,602.451L25.136,602.574L27.941,608.93L60.794,683.586L73.761,677.867Z" style="fill:rgb(70,236,140);fill-rule:nonzero;"/>
                <path d="M0,122.488L10.355,132.856L20.382,122.84L0,102.445L0,122.488Z" style="fill:rgb(70,236,140);fill-rule:nonzero;"/>
                <path d="M160.261,820.928L202.853,812.104L199.981,798.231L157.39,807.047L160.261,820.928Z" style="fill:rgb(70,236,140);fill-rule:nonzero;"/>
                <path d="M433.02,397.832L442.219,408.613L475.314,380.377L466.102,369.596L433.02,397.832Z" style="fill:rgb(70,236,140);fill-rule:nonzero;"/>
                <path d="M830.305,39.186L837.547,0.67L823.135,0.67L816.369,36.563L830.305,39.186Z" style="fill:rgb(70,236,140);fill-rule:nonzero;"/>
                <path d="M824.426,1411.15L823.135,1418L837.547,1418L838.35,1413.77L824.426,1411.15Z" style="fill:rgb(70,236,140);fill-rule:nonzero;"/>
                <path d="M1159.92,94.827L1146.73,89.639L1130.81,130.108L1143.99,135.301L1159.92,94.827Z" style="fill:rgb(70,236,140);fill-rule:nonzero;"/>
                <path d="M91.346,1149.74L60.128,1180.03L69.996,1190.21L101.214,1159.91L91.346,1149.74Z" style="fill:rgb(70,236,140);fill-rule:nonzero;"/>
                <path d="M25.57,1367.45L68.871,1371.44L70.173,1357.33L26.853,1353.33L25.57,1367.45Z" style="fill:rgb(70,236,140);fill-rule:nonzero;"/>
                <path d="M354.676,1362.48L392.143,1384.59L399.342,1372.38L361.875,1350.27L354.676,1362.48Z" style="fill:rgb(70,236,140);fill-rule:nonzero;"/>
                <path d="M910.852,952.088L885.801,916.522L874.219,924.686L899.256,960.25L910.852,952.088Z" style="fill:rgb(70,236,140);fill-rule:nonzero;"/>
                <path d="M477.92,1353.73L502.959,1389.29L514.541,1381.13L489.51,1345.57L477.92,1353.73Z" style="fill:rgb(70,236,140);fill-rule:nonzero;"/>
                <path d="M521.094,679.721L536.066,638.889L522.766,634.01L507.787,674.842L521.094,679.721Z" style="fill:rgb(70,236,140);fill-rule:nonzero;"/>
                <path d="M939.15,609.682L925.844,604.799L910.871,645.637L924.17,650.522L939.15,609.682Z" style="fill:rgb(70,236,140);fill-rule:nonzero;"/>
                <path d="M1067.33,915.924L1075.15,904.106L1038.87,880.106L1031.05,891.922L1067.33,915.924Z" style="fill:rgb(70,236,140);fill-rule:nonzero;"/>
                <path d="M1265.35,910.014L1263.67,895.936L1220.48,901.086L1222.16,915.164L1265.35,910.014Z" style="fill:rgb(70,236,140);fill-rule:nonzero;"/>
                <path d="M652.514,160.684L611.328,174.664L615.879,188.08L657.076,174.096L652.514,160.684Z" style="fill:rgb(70,236,140);fill-rule:nonzero;"/>
                <path d="M1058.44,245.135L1073.42,204.289L1060.11,199.418L1045.14,240.244L1058.44,245.135Z" style="fill:rgb(70,236,140);fill-rule:nonzero;"/>
                <path d="M93.372,3.344L90.692,0.67L70.65,0.67L83.356,13.372L93.372,3.344Z" style="fill:rgb(70,236,140);fill-rule:nonzero;"/>
                <path d="M1109.4,62.62L1094.02,47.239L1084.01,57.266L1099.39,72.641L1109.4,62.62Z" style="fill:rgb(70,236,140);fill-rule:nonzero;"/>
                <path d="M1353.94,94.752L1338.54,79.372L1328.53,89.399L1343.92,104.779L1353.94,94.752Z" style="fill:rgb(70,236,140);fill-rule:nonzero;"/>
                <path d="M476.025,69.376L460.65,53.995L450.635,64.022L466.01,79.395L476.025,69.376Z" style="fill:rgb(70,236,140);fill-rule:nonzero;"/>
                <path d="M698.396,35.858L708.424,25.85L729.164,5.104L724.719,0.67L713.549,0.67L698.396,15.809L683.256,0.67L672.086,0.67L667.652,5.104L698.396,35.858Z" style="fill:rgb(70,236,140);fill-rule:nonzero;"/>
                <path d="M1360.04,618.772L1380.76,598.031L1370.75,588.01L1350.01,608.731L1329.28,588.01L1319.25,598.031L1350.01,628.787L1360.04,618.772Z" style="fill:rgb(70,236,140);fill-rule:nonzero;"/>
                <path d="M478.322,940.375L509.078,971.131L519.104,961.115L539.832,940.375L529.818,930.354L509.078,951.082L488.336,930.354L478.322,940.375Z" style="fill:rgb(70,236,140);fill-rule:nonzero;"/>
                <path d="M653.686,849.658L667.389,823.731L654.854,817.117L634.527,855.566L647.074,862.199L673,875.887L679.607,863.354L653.686,849.658Z" style="fill:rgb(70,236,140);fill-rule:nonzero;"/>
                <path d="M621.344,1240.89L610.705,1231.53L581.938,1264.15L592.576,1273.53L614.57,1292.91L623.949,1282.28L601.949,1262.89L621.344,1240.89Z" style="fill:rgb(70,236,140);fill-rule:nonzero;"/>
                <path d="M890.248,1008.48L877.893,1015.43L899.225,1053.34L911.58,1046.39L937.137,1031.99L930.172,1019.64L904.629,1034.03L890.248,1008.48Z" style="fill:rgb(70,236,140);fill-rule:nonzero;"/>
                <path d="M1098.49,1255.01L1111.52,1249.46L1094.51,1209.43L1081.46,1214.98L1054.47,1226.46L1060.02,1239.49L1087,1228.03L1098.49,1255.01Z" style="fill:rgb(70,236,140);fill-rule:nonzero;"/>
                <path d="M1242.2,1119.79L1244.01,1133.85L1247.76,1162.93L1261.82,1161.12L1258.07,1132.04L1287.15,1128.29L1285.34,1114.23L1242.2,1119.79Z" style="fill:rgb(70,236,140);fill-rule:nonzero;"/>
                <path d="M804.334,583.262L794.529,593.481L825.92,623.588L835.744,613.361L856.021,592.195L845.803,582.385L825.506,603.539L804.334,583.262Z" style="fill:rgb(70,236,140);fill-rule:nonzero;"/>
                <path d="M244.558,361.477L242.173,390.693L256.294,391.861L258.708,362.631L287.921,365.031L289.075,350.91L245.729,347.342L244.558,361.477Z" style="fill:rgb(70,236,140);fill-rule:nonzero;"/>
                <path d="M245.044,271.649L219.538,286.115L226.526,298.44L252.04,283.984L266.501,309.492L278.825,302.502L257.376,264.658L245.044,271.649Z" style="fill:rgb(70,236,140);fill-rule:nonzero;"/>
                <path d="M50.853,228.518L64.425,232.625L77.021,190.994L63.462,186.883L35.386,178.393L31.287,191.965L59.343,200.461L50.853,228.518Z" style="fill:rgb(70,236,140);fill-rule:nonzero;"/>
                <path d="M1028.24,163.178L1039.8,154.973L1022.82,131.059L1046.72,114.084L1038.51,102.537L1003.06,127.711L1011.25,139.283L1028.24,163.178Z" style="fill:rgb(70,236,140);fill-rule:nonzero;"/>
                <path d="M871.445,255.483L878.51,212.563L864.529,210.26L835.578,205.506L833.287,219.49L862.232,224.258L857.461,253.18L871.445,255.483Z" style="fill:rgb(70,236,140);fill-rule:nonzero;"/>
                <path d="M791.182,301.947L786.99,330.973L801,333.012L805.223,303.99L834.244,308.201L836.275,294.186L793.238,287.918L791.182,301.947Z" style="fill:rgb(70,236,140);fill-rule:nonzero;"/>
                <path d="M273.683,1224.8L265.106,1236.08L299.745,1262.4L308.321,1251.11L326.056,1227.75L314.769,1219.18L297.017,1242.53L273.683,1224.8Z" style="fill:rgb(70,236,140);fill-rule:nonzero;"/>
                <path d="M476.309,1285.32L460.736,1310.17L435.891,1294.61L428.369,1306.62L465.225,1329.7L472.752,1317.69L488.307,1292.83L476.309,1285.32Z" style="fill:rgb(70,236,140);fill-rule:nonzero;"/>
                <path d="M636.305,1365.88L626.309,1393.45L639.627,1398.29L649.643,1370.71L677.193,1380.72L682.041,1367.4L641.152,1352.56L636.305,1365.88Z" style="fill:rgb(70,236,140);fill-rule:nonzero;"/>
                <path d="M210.171,734.934L167.448,726.815L164.794,740.75L159.341,769.555L173.271,772.197L178.735,743.393L207.534,748.858L210.171,734.934Z" style="fill:rgb(70,236,140);fill-rule:nonzero;"/>
                <path d="M19.82,716.471L30.632,707.326L2.544,674.121L0,676.281L0,694.854L0.882,694.096L19.82,716.471Z" style="fill:rgb(70,236,140);fill-rule:nonzero;"/>
                <path d="M1386.67,702.215L1395.82,713.025L1417.32,694.854L1417.32,676.281L1409.06,683.266L1386.67,702.215Z" style="fill:rgb(70,236,140);fill-rule:nonzero;"/>
                <path d="M297.183,879.272L301.122,835.969L287.001,834.672L257.802,832.029L256.517,846.139L285.716,848.799L283.062,878L297.183,879.272Z" style="fill:rgb(70,236,140);fill-rule:nonzero;"/>
                <path d="M422.867,824.805L423.361,795.488L409.178,795.24L408.691,824.565L379.373,824.076L379.139,838.234L422.621,838.977L422.867,824.805Z" style="fill:rgb(70,236,140);fill-rule:nonzero;"/>
                <path d="M1264.68,85.385L1273.76,96.252L1321.44,153.256L1332.32,144.154L1284.63,87.157L1377.94,9.092L1387.99,0.67L1365.92,0.67L1275.54,76.29L1264.68,85.385Z" style="fill:rgb(70,236,140);fill-rule:nonzero;"/>
                <path d="M529.67,1120.86L537.906,1109.33L526.379,1101.09L502.525,1084.03L494.277,1095.55L518.143,1112.62L447.387,1211.58L439.15,1223.1L450.678,1231.35L511.121,1274.57L519.37,1263.04L458.914,1219.81L529.67,1120.86Z" style="fill:rgb(70,236,140);fill-rule:nonzero;"/>
                <path d="M359.584,62.071L371.105,70.313L431.549,113.535L439.805,102.006L379.344,58.786L420.898,0.67L403.479,0.67L367.82,50.542L359.584,62.071Z" style="fill:rgb(70,236,140);fill-rule:nonzero;"/>
                <path d="M744.916,727.672L684.455,684.451L755.209,585.496L763.445,573.969L751.918,565.725L728.072,548.664L719.834,560.193L743.682,577.26L672.926,676.213L664.689,687.734L676.217,695.984L736.66,739.207L744.916,727.672Z" style="fill:rgb(70,236,140);fill-rule:nonzero;"/>
                <path d="M1063.65,422.524L1059.37,409.014L1045.86,413.287L1017.91,422.141L1022.17,435.658L1050.14,426.809L1086.87,542.768L1091.15,556.283L1104.66,551.998L1175.51,529.555L1171.23,516.051L1100.38,538.488L1063.65,422.524Z" style="fill:rgb(70,236,140);fill-rule:nonzero;"/>
                <path d="M1088.3,1059.73L1099.92,1051.6L1160.78,1008.96L1152.64,997.354L1091.79,1040L1021.99,940.356L1013.86,928.748L1002.26,936.881L978.229,953.693L986.367,965.315L1010.38,948.488L1080.18,1048.12L1088.3,1059.73Z" style="fill:rgb(70,236,140);fill-rule:nonzero;"/>
                <path d="M944.527,182.9L958.334,186.068L1030.78,202.695L1033.95,188.889L961.521,172.256L988.732,53.692L991.906,39.879L978.1,36.706L949.518,30.141L946.338,43.96L974.926,50.524L947.695,169.088L944.527,182.9Z" style="fill:rgb(70,236,140);fill-rule:nonzero;"/>
                <path d="M817.566,524.904L828.896,533.408L888.363,577.994L896.867,566.65L837.398,522.065L910.395,424.74L918.885,413.399L907.549,404.902L884.098,387.305L875.582,398.647L899.047,416.244L826.068,513.568L817.566,524.904Z" style="fill:rgb(70,236,140);fill-rule:nonzero;"/>
                <path d="M349.285,668.748L237.981,590.899L254.794,566.873L243.181,558.754L226.378,582.774L218.247,594.387L341.152,680.358L324.351,704.395L335.952,712.52L360.887,676.873L349.285,668.748Z" style="fill:rgb(70,236,140);fill-rule:nonzero;"/>
                <path d="M642.664,773.092L656.588,770.432L651.074,741.627L648.395,727.709L501.094,755.971L495.566,727.172L481.637,729.84L489.85,772.555L503.762,769.883L637.15,744.295L642.664,773.092Z" style="fill:rgb(70,236,140);fill-rule:nonzero;"/>
                <path d="M1118.96,806.275L1107.45,833.246L1120.48,838.797L1132,811.838L1137.55,798.797L999.594,739.922L1011.1,712.965L998.068,707.389L981.002,747.406L994.037,752.969L1118.96,806.275Z" style="fill:rgb(70,236,140);fill-rule:nonzero;"/>
                <path d="M742.916,310.467L716.6,345.108L727.875,353.684L836.041,435.83L818.307,459.176L829.582,467.746L847.328,444.406L855.904,433.119L736.457,342.397L754.189,319.037L742.916,310.467Z" style="fill:rgb(70,236,140);fill-rule:nonzero;"/>
                <path d="M663.492,637.395L681.238,614.053L689.814,602.754L570.367,512.043L588.1,488.686L576.824,480.115L550.516,514.748L561.803,523.318L669.949,605.471L652.217,628.824L663.492,637.395Z" style="fill:rgb(70,236,140);fill-rule:nonzero;"/>
                <path d="M1157.96,1257.95L1167.54,1268.38L1199.56,1238.92L1189.96,1228.49L1098.02,1128.52L1119.61,1108.68L1110.02,1098.25L1088.42,1118.09L1077.99,1127.69L1179.53,1238.09L1157.96,1257.95Z" style="fill:rgb(70,236,140);fill-rule:nonzero;"/>
                <path d="M1276.17,332.998L1252.07,316.334L1240.41,308.275L1155.12,431.668L1131,415.004L1122.94,426.643L1158.74,451.377L1166.78,439.721L1244.01,327.984L1268.13,344.662L1276.17,332.998Z" style="fill:rgb(70,236,140);fill-rule:nonzero;"/>
                <path d="M341.801,306.305L328.321,310.664L341.727,352.053L355.213,347.682L484.422,305.842L493.449,333.74L506.928,329.381L497.908,301.477L493.535,287.998L350.842,334.209L341.801,306.305Z" style="fill:rgb(70,236,140);fill-rule:nonzero;"/>
                <path d="M896.688,125.285L885.166,152.244L898.188,157.807L909.729,130.848L915.285,117.815L777.357,58.883L788.867,31.913L775.844,26.344L758.766,66.348L771.787,71.918L896.688,125.285Z" style="fill:rgb(70,236,140);fill-rule:nonzero;"/>
                <path d="M675.816,1154.54L647.123,1160.56L633.254,1163.48L664.115,1310.26L635.416,1316.3L638.336,1330.17L680.898,1321.21L677.982,1307.34L650.037,1174.43L678.736,1168.4L675.816,1154.54Z" style="fill:rgb(70,236,140);fill-rule:nonzero;"/>
                <path d="M374.545,1326.13L387.846,1321.25L377.762,1293.72L372.871,1280.41L232.054,1332.05L221.952,1304.52L208.646,1309.39L223.624,1350.23L236.931,1345.35L364.455,1298.59L374.545,1326.13Z" style="fill:rgb(70,236,140);fill-rule:nonzero;"/>
                <path d="M1210.85,126.051L1144.04,260.342L1117.79,247.283L1111.46,259.965L1150.41,279.342L1156.74,266.658L1217.24,145.063L1243.48,158.121L1249.8,145.44L1223.55,132.361L1210.85,126.051Z" style="fill:rgb(70,236,140);fill-rule:nonzero;"/>
                <path d="M319.997,29.504L319.997,0.67L305.815,0.67L305.815,29.512L319.997,29.504Z" style="fill:rgb(70,236,140);fill-rule:nonzero;"/>
                <path d="M151.313,434.311L183.194,404.729L193.579,395.09L163.997,363.191L153.61,372.844L173.55,394.336L141.669,423.926L151.313,434.311Z" style="fill:rgb(70,236,140);fill-rule:nonzero;"/>
                <path d="M331.741,540.502L355.51,504.084L363.258,492.217L326.839,468.438L319.091,480.313L343.641,496.336L319.862,532.766L331.741,540.502Z" style="fill:rgb(70,236,140);fill-rule:nonzero;"/>
                <path d="M375.119,174.422L365.357,184.703L396.896,214.656L407.166,224.406L437.137,192.891L426.855,183.129L406.666,204.381L375.119,174.422Z" style="fill:rgb(70,236,140);fill-rule:nonzero;"/>
                <path d="M24.459,473.168L14.127,430.928L0.371,434.287L7.316,462.77L0,464.561L0,479.15L10.675,476.539L24.459,473.168Z" style="fill:rgb(70,236,140);fill-rule:nonzero;"/>
                <path d="M1347.03,938.43L1413.96,906.088L1417.32,913.033L1417.32,888.731L1340.87,925.66L1347.03,938.43Z" style="fill:rgb(70,236,140);fill-rule:nonzero;"/>
                <path d="M1385.77,486.869L1417.32,479.15L1417.32,464.561L1382.39,473.094L1385.77,486.869Z" style="fill:rgb(70,236,140);fill-rule:nonzero;"/>
                <path d="M1381.43,295.777L1413,325.699L1417.32,329.801L1417.32,310.275L1391.18,285.49L1381.43,295.777Z" style="fill:rgb(70,236,140);fill-rule:nonzero;"/>
                <path d="M35.88,303.891L25.582,294.143L5.421,315.414L0,310.275L0,329.801L5.939,335.443L35.88,303.891Z" style="fill:rgb(70,236,140);fill-rule:nonzero;"/>
                <path d="M565.625,32.184L575.27,42.571L607.148,12.989L617.533,3.35L615.045,0.67L595.732,0.67L597.504,2.602L565.625,32.184Z" style="fill:rgb(70,236,140);fill-rule:nonzero;"/>
                <path d="M1120.05,190.52L1088.17,220.115L1097.82,230.5L1129.7,200.912L1140.08,191.268L1110.51,159.381L1100.13,169.031L1120.05,190.52Z" style="fill:rgb(70,236,140);fill-rule:nonzero;"/>
                <path d="M582.086,1370.08L519.52,1307.51L509.49,1317.53L562.055,1370.08L514.146,1418L534.189,1418L581.672,1370.51L582.086,1370.08Z" style="fill:rgb(70,236,140);fill-rule:nonzero;"/>
                <path d="M0,1210.9L0,1258.41L17.554,1202.25L4.013,1198L0,1210.9Z" style="fill:rgb(70,236,140);fill-rule:nonzero;"/>
                <path d="M1077.44,1386.08L1073.33,1391.66L1053.89,1418L1071.5,1418L1080.53,1405.79L1097.08,1418L1120.94,1418L1077.52,1385.96L1077.44,1386.08Z" style="fill:rgb(70,236,140);fill-rule:nonzero;"/>
                <path d="M1181.46,1370.3L1173.04,1381.7L1146.26,1418L1163.88,1418L1184.46,1390.11L1222.24,1418L1246.11,1418L1192.87,1378.71L1181.46,1370.3Z" style="fill:rgb(70,236,140);fill-rule:nonzero;"/>
                <path d="M1346.41,743.881L1332.57,746.932L1273.83,759.904L1257.8,687.334L1257.67,687.365L1250.88,688.859L1171.23,706.443L1174.3,720.287L1247.03,704.227L1259.99,762.961L1263.04,776.797L1276.89,773.748L1335.62,760.768L1351.65,833.344L1365.49,830.287L1349.46,757.719L1346.41,743.881Z" style="fill:rgb(70,236,140);fill-rule:nonzero;"/>
                <path d="M949.992,851.69L950.129,851.652L956.809,849.762L1035.28,827.522L1031.42,813.889L959.754,834.19L943.355,776.322L939.49,762.69L925.863,766.547L867.994,782.947L847.729,711.44L834.096,715.305L854.367,786.807L858.232,800.445L871.859,796.574L929.729,780.176L949.992,851.69Z" style="fill:rgb(70,236,140);fill-rule:nonzero;"/>
                <path d="M67.97,1415.32L70.65,1418L90.692,1418L77.978,1405.3L67.97,1415.32Z" style="fill:rgb(70,236,140);fill-rule:nonzero;"/>
                <path d="M1309.98,1021.03L1295.98,1023.21L1299.31,1044.71L1313.32,1042.52L1309.98,1021.03Z" style="fill:rgb(70,236,140);fill-rule:nonzero;"/>
                <path d="M1173.75,1060.19L1155.96,1047.67L1147.81,1059.27L1165.59,1071.78L1173.75,1060.19Z" style="fill:rgb(70,236,140);fill-rule:nonzero;"/>
                <path d="M1017.49,1006.44L999.711,993.928L991.547,1005.51L1009.34,1018.03L1017.49,1006.44Z" style="fill:rgb(70,236,140);fill-rule:nonzero;"/>
                <path d="M1399.79,1349.64L1390.69,1329.89L1377.81,1335.81L1386.91,1355.57L1399.79,1349.64Z" style="fill:rgb(70,236,140);fill-rule:nonzero;"/>
                <path d="M1096.71,1365.2L1110.71,1367.43L1114.13,1345.95L1100.13,1343.72L1096.71,1365.2Z" style="fill:rgb(70,236,140);fill-rule:nonzero;"/>
                <path d="M51.052,1130.29L29.818,1135.07L32.947,1148.88L54.158,1144.12L51.052,1130.29Z" style="fill:rgb(70,236,140);fill-rule:nonzero;"/>
                <path d="M123.831,1069.45L137.866,1071.52L141.034,1050L127.017,1047.94L123.831,1069.45Z" style="fill:rgb(70,236,140);fill-rule:nonzero;"/>
                <path d="M303.579,1021.87L289.563,1024.04L292.917,1045.54L306.913,1043.35L303.579,1021.87Z" style="fill:rgb(70,236,140);fill-rule:nonzero;"/>
                <path d="M751.27,1180.57L765.434,1181.1L766.25,1159.37L752.084,1158.84L751.27,1180.57Z" style="fill:rgb(70,236,140);fill-rule:nonzero;"/>
                <path d="M444.633,1143.49L463.33,1132.39L456.1,1120.2L437.391,1131.3L444.633,1143.49Z" style="fill:rgb(70,236,140);fill-rule:nonzero;"/>
                <path d="M716.229,1299.21L729.744,1294.91L723.15,1274.19L709.652,1278.48L716.229,1299.21Z" style="fill:rgb(70,236,140);fill-rule:nonzero;"/>
                <path d="M417.625,742.201L430.043,760.059L441.682,751.969L429.271,734.113L417.625,742.201Z" style="fill:rgb(70,236,140);fill-rule:nonzero;"/>
                <path d="M588.822,798.014L586.914,819.68L601.035,820.928L602.943,799.26L588.822,798.014Z" style="fill:rgb(70,236,140);fill-rule:nonzero;"/>
                <path d="M584.383,678.467L604.363,669.891L598.781,656.869L578.795,665.44L584.383,678.467Z" style="fill:rgb(70,236,140);fill-rule:nonzero;"/>
                <path d="M739.414,786.016L745.076,807.01L758.766,803.316L753.104,782.324L739.414,786.016Z" style="fill:rgb(70,236,140);fill-rule:nonzero;"/>
                <path d="M930.672,492.451L944.367,488.766L938.705,467.766L925.016,471.457L930.672,492.451Z" style="fill:rgb(70,236,140);fill-rule:nonzero;"/>
                <path d="M943.107,359.723L922.244,365.891L926.264,379.475L947.121,373.313L943.107,359.723Z" style="fill:rgb(70,236,140);fill-rule:nonzero;"/>
                <path d="M521.919,889.274L502.205,880.106L496.234,892.961L515.948,902.123L521.919,889.274Z" style="fill:rgb(70,236,140);fill-rule:nonzero;"/>
                <path d="M674.068,1022.99L660.262,1019.77L655.311,1040.95L669.123,1044.18L674.068,1022.99Z" style="fill:rgb(70,236,140);fill-rule:nonzero;"/>
                <path d="M169.776,561.07L158.44,579.631L170.53,587.01L181.86,568.441L169.776,561.07Z" style="fill:rgb(70,236,140);fill-rule:nonzero;"/>
                <path d="M366.574,245.547L360.887,266.541L374.576,270.246L380.264,249.258L366.574,245.547Z" style="fill:rgb(70,236,140);fill-rule:nonzero;"/>
                <path d="M57.906,132.793L63.209,145.945L83.376,137.801L78.072,124.662L57.906,132.793Z" style="fill:rgb(70,236,140);fill-rule:nonzero;"/>
                <path d="M40.023,558.125L45.716,537.143L32.027,533.42L26.341,554.414L40.023,558.125Z" style="fill:rgb(70,236,140);fill-rule:nonzero;"/>
                <path d="M504.588,257.897L519.568,242.127L509.287,232.365L494.309,248.141L504.588,257.897Z" style="fill:rgb(70,236,140);fill-rule:nonzero;"/>
                <path d="M1143.12,669.631L1158.1,653.861L1147.81,644.106L1132.84,659.875L1143.12,669.631Z" style="fill:rgb(70,236,140);fill-rule:nonzero;"/>
                <path d="M1121.67,469.729L1110.61,478.584L1124.2,495.563L1135.27,486.703L1121.67,469.729Z" style="fill:rgb(70,236,140);fill-rule:nonzero;"/>
                <path d="M1029.18,599.717L1043.55,583.408L1032.91,574.029L1018.54,590.356L1029.18,599.717Z" style="fill:rgb(70,236,140);fill-rule:nonzero;"/>
                <path d="M713.549,1418L724.719,1418L719.137,1412.41L713.549,1418Z" style="fill:rgb(70,236,140);fill-rule:nonzero;"/>
                <path d="M672.086,1418L683.256,1418L677.668,1412.41L672.086,1418Z" style="fill:rgb(70,236,140);fill-rule:nonzero;"/>
                <path d="M1379.71,1406.46L1360.89,1383.97L1350.02,1393.05L1368.83,1415.55L1365.92,1418L1387.99,1418L1388.79,1417.33L1379.71,1406.46Z" style="fill:rgb(70,236,140);fill-rule:nonzero;"/>
                <path d="M127.979,905.891L141.903,908.502L147.331,879.686L149.95,865.762L2.531,838.074L7.941,809.252L0,807.758L0,852.016L133.401,877.072L127.979,905.891Z" style="fill:rgb(70,236,140);fill-rule:nonzero;"/>
                <path d="M319.979,1389.17L276.485,1389.16L276.497,1403.34L305.815,1403.34L305.815,1418L319.997,1418L319.979,1403.34L319.979,1389.17Z" style="fill:rgb(70,236,140);fill-rule:nonzero;"/>
                <path d="M272.663,1182.64L286.099,1187.14L295.429,1159.36L336.675,1173.18L341.184,1159.74L299.937,1145.91L286.501,1141.41L272.663,1182.64Z" style="fill:rgb(70,236,140);fill-rule:nonzero;"/>
                <path d="M237.271,1202.25L216.056,1164.28L203.687,1171.21L217.981,1196.79L180.026,1218.02L186.942,1230.39L224.897,1209.16L237.271,1202.25Z" style="fill:rgb(70,236,140);fill-rule:nonzero;"/>
                <path d="M552.645,1193.57L509.775,1200.89L512.169,1214.87L541.063,1209.93L548.396,1252.8L562.363,1250.41L555.035,1207.54L552.645,1193.57Z" style="fill:rgb(70,236,140);fill-rule:nonzero;"/>
                <path d="M546.23,282.422L577.535,312.623L587.742,322.459L617.953,291.166L607.74,281.33L587.371,302.422L556.084,272.215L546.23,282.422Z" style="fill:rgb(70,236,140);fill-rule:nonzero;"/>
                <path d="M200.13,114.375L192.733,86.008L234.837,75.03L231.257,61.311L189.165,72.29L175.464,75.864L186.411,117.955L200.13,114.375Z" style="fill:rgb(70,236,140);fill-rule:nonzero;"/>
                <path d="M98.602,83.292L107.716,40.768L93.846,37.803L87.715,66.467L45.179,57.366L42.222,71.227L84.752,80.323L98.602,83.292Z" style="fill:rgb(70,236,140);fill-rule:nonzero;"/>
                <path d="M958.291,1083.33L989.596,1113.53L999.803,1123.38L1030,1092.08L1019.79,1082.24L999.434,1103.34L968.127,1073.13L958.291,1083.33Z" style="fill:rgb(70,236,140);fill-rule:nonzero;"/>
                <path d="M782.248,1023.1L824.057,1011.09L837.67,1007.18L825.668,965.369L812.053,969.291L820.141,997.471L778.332,1009.48L782.248,1023.1Z" style="fill:rgb(70,236,140);fill-rule:nonzero;"/>
                <path d="M472.666,698.102L442.262,666.994L432.352,656.869L401.256,687.26L411.166,697.393L432.129,676.904L462.527,708.012L472.666,698.102Z" style="fill:rgb(70,236,140);fill-rule:nonzero;"/>
                <path d="M158.353,645.514L164.177,658.43L190.911,646.402L208.769,686.068L221.698,680.238L203.835,640.58L198.024,627.656L158.353,645.514Z" style="fill:rgb(70,236,140);fill-rule:nonzero;"/>
                <path d="M103.374,805.195L60.9,795.822L57.849,809.664L100.325,819.025L114.161,822.082L123.534,779.608L109.698,776.563L103.374,805.195Z" style="fill:rgb(70,236,140);fill-rule:nonzero;"/>
                <path d="M223.669,859.525L210.411,864.563L220.796,891.973L180.112,907.391L185.151,920.641L225.817,905.223L239.062,900.209L223.669,859.525Z" style="fill:rgb(70,236,140);fill-rule:nonzero;"/>
                <path d="M71.138,1060.83L105.505,1034.17L96.811,1022.98L73.638,1040.95L46.988,1006.58L35.789,1015.27L62.457,1049.63L71.138,1060.83Z" style="fill:rgb(70,236,140);fill-rule:nonzero;"/>
                <path d="M537.58,1040.84L551.533,1038.47L544.26,995.594L530.293,997.979L535.195,1026.88L492.307,1034.16L494.691,1048.14L537.58,1040.84Z" style="fill:rgb(70,236,140);fill-rule:nonzero;"/>
                <path d="M654.988,922.303L650.902,908.742L609.254,921.301L613.359,934.873L641.43,926.402L654.008,968.043L667.566,963.938L654.988,922.303Z" style="fill:rgb(70,236,140);fill-rule:nonzero;"/>
                <path d="M932.469,1349.52L924.824,1392.34L938.793,1394.82L943.936,1365.96L986.762,1373.59L989.238,1359.64L946.412,1352L932.469,1349.52Z" style="fill:rgb(70,236,140);fill-rule:nonzero;"/>
                <path d="M784.111,138.129L770.244,141.031L779.148,183.609L793.016,180.695L787.014,152.002L829.594,143.092L826.691,129.213L784.111,138.129Z" style="fill:rgb(70,236,140);fill-rule:nonzero;"/>
                <path d="M1282.9,676.072L1312.21,676.072L1312.21,719.572L1326.39,719.572L1326.39,661.9L1282.9,661.895L1282.9,676.072Z" style="fill:rgb(70,236,140);fill-rule:nonzero;"/>
                <path d="M1202.13,89.342L1242.48,73.141L1237.21,59.989L1209.99,70.913L1193.79,30.543L1180.63,35.835L1196.85,76.198L1202.13,89.342Z" style="fill:rgb(70,236,140);fill-rule:nonzero;"/>
                <path d="M1382.14,553.406L1390.17,510.66L1376.24,508.055L1370.83,536.865L1328.08,528.844L1325.46,542.781L1368.22,550.795L1382.14,553.406Z" style="fill:rgb(70,236,140);fill-rule:nonzero;"/>
                <path d="M890.797,824.83L886.555,868.119L885.178,882.223L928.469,886.471L929.846,872.356L900.664,869.496L904.912,826.207L890.797,824.83Z" style="fill:rgb(70,236,140);fill-rule:nonzero;"/>
                <path d="M792.01,643.963L748.973,650.225L734.943,652.25L741.18,695.299L755.209,693.262L751.004,664.234L794.053,657.998L792.01,643.963Z" style="fill:rgb(70,236,140);fill-rule:nonzero;"/>
                <path d="M1290.14,853.035L1322.48,882.117L1331.96,871.572L1299.61,842.496L1289.08,833.024L1259.99,865.348L1270.53,874.832L1290.14,853.035Z" style="fill:rgb(70,236,140);fill-rule:nonzero;"/>
                <path d="M1286.42,1341.47L1242.93,1341.46L1242.93,1355.64L1272.24,1355.64L1272.24,1399.14L1286.42,1399.13L1286.42,1341.47Z" style="fill:rgb(70,236,140);fill-rule:nonzero;"/>
                <path d="M19.134,1091.39L150.054,1127.52L113.921,1258.45L127.579,1262.22L167.491,1117.63L22.902,1077.72L19.134,1091.39Z" style="fill:rgb(70,236,140);fill-rule:nonzero;"/>
                <path d="M1233.7,587.576L1084.6,603.971L1101,753.057L1115.09,751.52L1100.25,616.506L1235.25,601.662L1233.7,587.576Z" style="fill:rgb(70,236,140);fill-rule:nonzero;"/>
                <path d="M100.103,428.334L0,380.066L0,395.801L93.952,441.092L100.103,428.334Z" style="fill:rgb(70,236,140);fill-rule:nonzero;"/>
                <path d="M1396.93,102.1L1417.32,122.488L1417.32,102.445L1406.96,92.079L1396.93,102.1Z" style="fill:rgb(70,236,140);fill-rule:nonzero;"/>
                <path d="M1327.68,1246.6L1323.43,1260.14L1407.91,1286.52L1408.48,1286.7L1417.32,1258.41L1417.32,1210.9L1399.18,1268.96L1327.68,1246.6Z" style="fill:rgb(70,236,140);fill-rule:nonzero;"/>
                <path d="M1403.31,849.387L1417.25,851.998L1417.32,852.016L1417.32,807.758L1411.34,806.627L1403.31,849.387Z" style="fill:rgb(70,236,140);fill-rule:nonzero;"/>
                <path d="M258.073,84.083L269.786,92.053L286.29,67.825L294.274,56.112L212.868,0.67L187.7,0.67L274.591,59.848L258.073,84.083Z" style="fill:rgb(70,236,140);fill-rule:nonzero;"/>
                <path d="M905.092,1386.04L817.387,1374.34L815.504,1388.4L889.18,1398.22L886.543,1418L900.836,1418L905.018,1386.63L905.092,1386.04Z" style="fill:rgb(70,236,140);fill-rule:nonzero;"/>
                <path d="M458.334,1365.63L446.813,1357.39L422.961,1340.33L414.705,1351.86L438.576,1368.92L403.479,1418L420.898,1418L450.098,1377.15L458.334,1365.63Z" style="fill:rgb(70,236,140);fill-rule:nonzero;"/>
                <path d="M577.578,1398.44L595.732,1418L615.045,1418L587.965,1388.79L577.578,1398.44Z" style="fill:rgb(70,236,140);fill-rule:nonzero;"/>
                <path d="M186.812,1364.77L175.104,1356.79L150.616,1392.74L162.323,1400.72L187.7,1418L212.868,1418L170.308,1389.02L186.812,1364.77Z" style="fill:rgb(70,236,140);fill-rule:nonzero;"/>
                <path d="M1317.19,498.311L1329.96,504.473L1388.94,382.123L1417.32,395.801L1417.32,380.066L1382.33,363.191L1317.19,498.311Z" style="fill:rgb(70,236,140);fill-rule:nonzero;"/>
                <path d="M609.211,874.598L474.086,809.467L408.957,944.58L421.732,950.748L480.705,828.399L603.049,887.359L609.211,874.598Z" style="fill:rgb(70,236,140);fill-rule:nonzero;"/>
                <path d="M553.713,72.592L676.057,131.559L682.219,118.795L547.094,53.661L481.965,188.779L494.734,194.941L553.713,72.592Z" style="fill:rgb(70,236,140);fill-rule:nonzero;"/>
                <path d="M415.148,536.131L428.615,531.746L382.244,389.108L239.599,435.49L243.983,448.969L373.137,406.971L415.148,536.131Z" style="fill:rgb(70,236,140);fill-rule:nonzero;"/>
                <path d="M1130.19,367.33L1017.91,290.924L1009.94,302.639L1133.93,387.014L1218.32,263.016L1206.6,255.031L1130.19,367.33Z" style="fill:rgb(70,236,140);fill-rule:nonzero;"/>
                <path d="M705.355,1059.01L706.516,1073.13L841.863,1061.98L853.033,1197.34L867.148,1196.17L854.836,1046.69L705.355,1059.01Z" style="fill:rgb(70,236,140);fill-rule:nonzero;"/>
                <path d="M759.668,1107.84L623.918,1103.03L628.723,967.303L614.57,966.797L609.254,1116.7L759.148,1122.01L759.668,1107.84Z" style="fill:rgb(70,236,140);fill-rule:nonzero;"/>
                <path d="M1194.07,1131.85L1182.31,1139.75L1258.07,1252.47L1145.37,1328.25L1153.27,1340.01L1277.76,1256.32L1194.07,1131.85Z" style="fill:rgb(70,236,140);fill-rule:nonzero;"/>
                <path d="M1210.17,1091L1223.65,1095.39L1265.56,966.197L1394.75,1008.1L1399.12,994.631L1256.45,948.34L1210.17,1091Z" style="fill:rgb(70,236,140);fill-rule:nonzero;"/>
            </g>
        </g>
    </g>
</svg>
