<?xml version="1.0" encoding="UTF-8" standalone="no"?>
<!DOCTYPE svg PUBLIC "-//W3C//DTD SVG 1.1//EN" "http://www.w3.org/Graphics/SVG/1.1/DTD/svg11.dtd">
<svg width="100%" height="100%" viewBox="0 0 512 512" version="1.1" xmlns="http://www.w3.org/2000/svg" xmlns:xlink="http://www.w3.org/1999/xlink" xml:space="preserve" xmlns:serif="http://www.serif.com/" style="fill-rule:evenodd;clip-rule:evenodd;stroke-linejoin:round;stroke-miterlimit:2;">
    <g transform="matrix(1.76339,0,0,1.76339,-40.25,-29.6696)">
        <g id="Full-Trans-Semi" serif:id="Full Trans Semi" transform="matrix(1.4,0,0,1.4,-168,-58)">
            <g id="Final-Edges" serif:id="Final Edges">
                <g id="Full-Trans-Semi1" serif:id="Full Trans Semi">
                    <g>
                        <g transform="matrix(0.357143,0,0,0.357143,160,65.7143)">
                            <path d="M0,336C0,327.2 7.2,320 16,320C24.8,320 32,327.2 32,336L32,448L144,448C152.8,448 160,455.2 160,464C160,472.8 152.8,480 144,480L16,480C7.2,480 0,472.8 0,464L0,336Z" style="fill:rgb(128,255,247);"/>
                        </g>
                        <g transform="matrix(0.357143,0,0,0.357143,160,65.7143)">
                            <path d="M432,32C440.8,32 448,39.2 448,48L448,176C448,184.8 440.8,192 432,192C423.2,192 416,184.8 416,176L416,64L304,64C295.2,64 288,56.8 288,48C288,39.2 295.2,32 304,32L432,32Z" style="fill:rgb(128,255,247);"/>
                        </g>
                    </g>
                    <g>
                        <g transform="matrix(0.357143,0,0,0.357143,160,65.7143)">
                            <path d="M416,336C416,327.2 423.2,320 432,320C440.8,320 448,327.2 448,336L448,464C448,472.8 440.8,480 432,480L304,480C295.2,480 288,472.8 288,464C288,455.2 295.2,448 304,448L416,448L416,336Z" style="fill:rgb(221,255,235);"/>
                        </g>
                        <g transform="matrix(0.357143,0,0,0.357143,160,65.7143)">
                            <path d="M144,32C152.8,32 160,39.2 160,48C160,56.8 152.8,64 144,64L32,64L32,176C32,184.8 24.8,192 16,192C7.2,192 0,184.8 0,176L0,48C0,39.2 7.2,32 16,32L144,32Z" style="fill:rgb(221,255,235);"/>
                        </g>
                    </g>
                </g>
            </g>
        </g>
        <g transform="matrix(0.892625,0,0,0.892625,30.0025,-20.4056)">
            <g transform="matrix(0.341228,0,0,0.341228,78.1794,116.993)">
                <path d="M104.4,240L184,240C191.5,240 198.6,243.5 203.2,249.5C207.8,255.5 209.2,263.3 207.1,270.5L162.3,427.5L345.5,272L264,272C256.5,272 249.4,268.5 244.8,262.5C240.2,256.5 238.8,248.7 240.9,241.5L285.6,85L104.4,240Z" style="fill:rgb(221,255,235);fill-rule:nonzero;"/>
            </g>
            <g transform="matrix(0.341228,0,0,0.341228,78.1794,116.993)">
                <path d="M321.7,0C340.8,0 354.6,18.3 349.3,36.6L295.8,224L381,224C400.3,224 415.9,239.6 415.9,258.9C415.9,269.2 411.4,278.9 403.6,285.5L144.9,505.2C139.7,509.6 133.1,512 126.3,512C107.2,512 93.4,493.7 98.7,475.4L152.2,288L65.8,288C47.1,288 32,272.9 32,254.3C32,244.4 36.3,235.1 43.8,228.7L303.1,6.9C308.3,2.4 314.9,0 321.7,0ZM285.6,85L104.4,240L184,240C191.5,240 198.6,243.5 203.2,249.5C207.8,255.5 209.2,263.3 207.1,270.5L162.3,427.5L345.5,272L264,272C256.5,272 249.4,268.5 244.8,262.5C240.2,256.5 238.8,248.7 240.9,241.5L285.6,85Z" style="fill:rgb(128,255,247);fill-rule:nonzero;"/>
            </g>
        </g>
    </g>
    <g transform="matrix(1.76339,0,0,1.76339,-22.6161,-110.345)">
        <g id="Final-Edges1" serif:id="Final Edges" transform="matrix(0.973913,0,0,0.973913,-17.3043,12.9674)">
            <g opacity="0.75">
                <g id="Full-Trans-Semi2" serif:id="Full Trans Semi" transform="matrix(1.4375,0,0,1.4375,-165,-25.8929)">
                    <g opacity="0.5">
                        <g>
                            <g transform="matrix(0.357143,0,0,0.357143,160,65.7143)">
                                <path d="M0,336C0,327.2 7.2,320 16,320C24.8,320 32,327.2 32,336L32,448L144,448C152.8,448 160,455.2 160,464C160,472.8 152.8,480 144,480L16,480C7.2,480 0,472.8 0,464L0,336Z" style="fill:rgb(0,157,241);"/>
                            </g>
                            <g transform="matrix(0.357143,0,0,0.357143,160,65.7143)">
                                <path d="M432,32C440.8,32 448,39.2 448,48L448,176C448,184.8 440.8,192 432,192C423.2,192 416,184.8 416,176L416,64L304,64C295.2,64 288,56.8 288,48C288,39.2 295.2,32 304,32L432,32Z" style="fill:rgb(0,157,241);"/>
                            </g>
                        </g>
                        <g opacity="0.8">
                            <g transform="matrix(0.357143,0,0,0.357143,160,65.7143)">
                                <path d="M416,336C416,327.2 423.2,320 432,320C440.8,320 448,327.2 448,336L448,464C448,472.8 440.8,480 432,480L304,480C295.2,480 288,472.8 288,464C288,455.2 295.2,448 304,448L416,448L416,336Z" style="fill:rgb(25,247,128);"/>
                            </g>
                            <g transform="matrix(0.357143,0,0,0.357143,160,65.7143)">
                                <path d="M144,32C152.8,32 160,39.2 160,48C160,56.8 152.8,64 144,64L32,64L32,176C32,184.8 24.8,192 16,192C7.2,192 0,184.8 0,176L0,48C0,39.2 7.2,32 16,32L144,32Z" style="fill:rgb(25,247,128);"/>
                            </g>
                        </g>
                    </g>
                </g>
                <g id="Mini-Opaque-Semi" serif:id="Mini Opaque Semi" transform="matrix(1.4375,0,0,1.4375,-165,-25.8929)">
                    <g opacity="0.9">
                        <g>
                            <g transform="matrix(0.357143,0,0,0.357143,160,65.7143)">
                                <path d="M0,392C0,383.2 7.2,376 16,376C24.8,376 32,383.2 32,392L32,448L88,448C96.8,448 104,455.2 104,464C104,472.8 96.8,480 88,480L16,480C7.2,480 0,472.8 0,464L0,392Z" style="fill:rgb(0,157,241);"/>
                            </g>
                            <g transform="matrix(0.357143,0,0,0.357143,160,65.7143)">
                                <path d="M432,32C440.8,32 448,39.2 448,48L448,120C448,128.8 440.8,136 432,136C423.2,136 416,128.8 416,120L416,64L360,64C351.2,64 344,56.8 344,48C344,39.2 351.2,32 360,32L432,32Z" style="fill:rgb(0,157,241);"/>
                            </g>
                        </g>
                        <g>
                            <g transform="matrix(0.357143,0,0,0.357143,160,65.7143)">
                                <path d="M416,392C416,383.2 423.2,376 432,376C440.8,376 448,383.2 448,392L448,464C448,472.8 440.8,480 432,480L360,480C351.2,480 344,472.8 344,464C344,455.2 351.2,448 360,448L416,448L416,392Z" style="fill:rgb(5,228,98);"/>
                            </g>
                            <g transform="matrix(0.357143,0,0,0.357143,160,65.7143)">
                                <path d="M88,32C96.8,32 104,39.2 104,48C104,56.8 96.8,64 88,64L32,64L32,120C32,128.8 24.8,136 16,136C7.2,136 0,128.8 0,120L0,48C0,39.2 7.2,32 16,32L88,32Z" style="fill:rgb(5,228,98);"/>
                            </g>
                        </g>
                    </g>
                </g>
            </g>
        </g>
        <g transform="matrix(0.892625,0,0,0.892625,20.0025,25.3444)">
            <g transform="matrix(0.341228,0,0,0.341228,78.1794,116.993)">
                <path d="M104.4,240L184,240C191.5,240 198.6,243.5 203.2,249.5C207.8,255.5 209.2,263.3 207.1,270.5L162.3,427.5L345.5,272L264,272C256.5,272 249.4,268.5 244.8,262.5C240.2,256.5 238.8,248.7 240.9,241.5L285.6,85L104.4,240Z" style="fill:rgb(5,228,98);fill-opacity:0.8;fill-rule:nonzero;"/>
            </g>
            <g transform="matrix(0.341228,0,0,0.341228,78.1794,116.993)">
                <path d="M321.7,0C340.8,0 354.6,18.3 349.3,36.6L295.8,224L381,224C400.3,224 415.9,239.6 415.9,258.9C415.9,269.2 411.4,278.9 403.6,285.5L144.9,505.2C139.7,509.6 133.1,512 126.3,512C107.2,512 93.4,493.7 98.7,475.4L152.2,288L65.8,288C47.1,288 32,272.9 32,254.3C32,244.4 36.3,235.1 43.8,228.7L303.1,6.9C308.3,2.4 314.9,0 321.7,0ZM285.6,85L104.4,240L184,240C191.5,240 198.6,243.5 203.2,249.5C207.8,255.5 209.2,263.3 207.1,270.5L162.3,427.5L345.5,272L264,272C256.5,272 249.4,268.5 244.8,262.5C240.2,256.5 238.8,248.7 240.9,241.5L285.6,85Z" style="fill:rgb(0,157,241);fill-opacity:0.6;fill-rule:nonzero;"/>
            </g>
        </g>
    </g>
</svg>
