<?xml version="1.0" encoding="UTF-8" standalone="no"?><!DOCTYPE svg PUBLIC "-//W3C//DTD SVG 1.1//EN" "http://www.w3.org/Graphics/SVG/1.1/DTD/svg11.dtd"><svg width="100%" height="100%" viewBox="0 0 1700 550" version="1.1" xmlns="http://www.w3.org/2000/svg" xmlns:xlink="http://www.w3.org/1999/xlink" xml:space="preserve" xmlns:serif="http://www.serif.com/" style="fill-rule:evenodd;clip-rule:evenodd;stroke-linejoin:round;stroke-miterlimit:2;"><g><g><g><g id="Final-Edges" serif:id="Final Edges"><g id="Full-Trans-Semi" serif:id="Full Trans Semi"><g><path d="M67.715,350.738c-0,-8.286 6.779,-15.066 15.065,-15.066c8.286,0 15.066,6.78 15.066,15.066l-0,105.459l105.459,-0c8.286,-0 15.065,6.779 15.065,15.065c0,8.286 -6.779,15.066 -15.065,15.066l-120.525,-0c-8.286,-0 -15.065,-6.78 -15.065,-15.066l-0,-120.524Z" style="fill:#80fff7;"/><path d="M474.485,64.492c8.286,-0 15.066,6.779 15.066,15.065l-0,120.525c-0,8.286 -6.78,15.065 -15.066,15.065c-8.286,0 -15.065,-6.779 -15.065,-15.065l-0,-105.459l-105.459,-0c-8.286,-0 -15.066,-6.78 -15.066,-15.066c0,-8.286 6.78,-15.065 15.066,-15.065l120.524,-0Z" style="fill:#80fff7;"/></g><g><path d="M459.42,350.738c-0,-8.286 6.779,-15.066 15.065,-15.066c8.286,0 15.066,6.78 15.066,15.066l-0,120.524c-0,8.286 -6.78,15.066 -15.066,15.066l-120.524,-0c-8.286,-0 -15.066,-6.78 -15.066,-15.066c0,-8.286 6.78,-15.065 15.066,-15.065l105.459,-0l-0,-105.459Z" style="fill:#ddffeb;"/><path d="M203.305,64.492c8.286,-0 15.065,6.779 15.065,15.065c0,8.286 -6.779,15.066 -15.065,15.066l-105.459,-0l-0,105.459c-0,8.286 -6.78,15.065 -15.066,15.065c-8.286,0 -15.065,-6.779 -15.065,-15.065l-0,-120.525c-0,-8.286 6.779,-15.065 15.065,-15.065l120.525,-0Z" style="fill:#ddffeb;"/></g></g></g><g><path d="M210.059,266.232l45.658,0c4.302,0 8.375,2.008 11.014,5.449c2.638,3.442 3.441,7.916 2.237,12.046l-25.698,90.055l105.084,-89.195l-46.749,0c-4.302,0 -8.374,-2.007 -11.013,-5.449c-2.638,-3.441 -3.441,-7.916 -2.237,-12.046l25.64,-89.768l-103.936,88.908Z" style="fill:#ddffeb;fill-rule:nonzero;"/><path d="M334.702,128.568c10.956,-0 18.872,10.497 15.832,20.994l-30.688,107.492l48.871,0c11.07,0 20.018,8.949 20.018,20.019c0,5.908 -2.581,11.472 -7.055,15.258l-148.39,126.02c-2.983,2.524 -6.769,3.9 -10.669,3.9c-10.956,0 -18.872,-10.496 -15.832,-20.993l30.688,-107.493l-49.559,-0c-10.726,-0 -19.388,-8.661 -19.388,-19.33c0,-5.679 2.467,-11.014 6.769,-14.685l148.734,-127.224c2.983,-2.581 6.769,-3.958 10.669,-3.958Zm-20.707,48.756l-103.936,88.908l45.658,0c4.302,0 8.375,2.008 11.014,5.449c2.638,3.442 3.441,7.916 2.237,12.046l-25.698,90.055l105.084,-89.195l-46.749,0c-4.302,0 -8.374,-2.007 -11.013,-5.449c-2.638,-3.441 -3.441,-7.916 -2.237,-12.046l25.64,-89.768Z" style="fill:#80fff7;fill-rule:nonzero;"/></g></g><g><g id="Final-Edges1" serif:id="Final Edges" opacity="0.75"><g id="Full-Trans-Semi1" serif:id="Full Trans Semi" opacity="0.5"><g><path d="M67.715,350.738c-0,-8.286 6.779,-15.066 15.065,-15.066c8.286,0 15.066,6.78 15.066,15.066l-0,105.459l105.459,-0c8.286,-0 15.065,6.779 15.065,15.065c0,8.286 -6.779,15.066 -15.065,15.066l-120.525,-0c-8.286,-0 -15.065,-6.78 -15.065,-15.066l-0,-120.524Z" style="fill:#009df1;"/><path d="M474.485,64.492c8.286,-0 15.066,6.779 15.066,15.065l-0,120.525c-0,8.286 -6.78,15.065 -15.066,15.065c-8.286,0 -15.065,-6.779 -15.065,-15.065l-0,-105.459l-105.459,-0c-8.286,-0 -15.066,-6.78 -15.066,-15.066c0,-8.286 6.78,-15.065 15.066,-15.065l120.524,-0Z" style="fill:#009df1;"/></g><g opacity="0.8"><path d="M459.42,350.738c-0,-8.286 6.779,-15.066 15.065,-15.066c8.286,0 15.066,6.78 15.066,15.066l-0,120.524c-0,8.286 -6.78,15.066 -15.066,15.066l-120.524,-0c-8.286,-0 -15.066,-6.78 -15.066,-15.066c0,-8.286 6.78,-15.065 15.066,-15.065l105.459,-0l-0,-105.459Z" style="fill:#19f780;"/><path d="M203.305,64.492c8.286,-0 15.065,6.779 15.065,15.065c0,8.286 -6.779,15.066 -15.065,15.066l-105.459,-0l-0,105.459c-0,8.286 -6.78,15.065 -15.066,15.065c-8.286,0 -15.065,-6.779 -15.065,-15.065l-0,-120.525c-0,-8.286 6.779,-15.065 15.065,-15.065l120.525,-0Z" style="fill:#19f780;"/></g></g><g id="Mini-Opaque-Semi" serif:id="Mini Opaque Semi" opacity="0.9"><g><path d="M67.715,403.467c-0,-8.286 6.779,-15.065 15.065,-15.065c8.286,-0 15.066,6.779 15.066,15.065l-0,52.73l52.729,-0c8.286,-0 15.066,6.779 15.066,15.065c-0,8.286 -6.78,15.066 -15.066,15.066l-67.795,-0c-8.286,-0 -15.065,-6.78 -15.065,-15.066l-0,-67.795Z" style="fill:#009df1;"/><path d="M474.485,64.492c8.286,-0 15.066,6.779 15.066,15.065l-0,67.795c-0,8.286 -6.78,15.066 -15.066,15.066c-8.286,-0 -15.065,-6.78 -15.065,-15.066l-0,-52.729l-52.73,-0c-8.286,-0 -15.065,-6.78 -15.065,-15.066c-0,-8.286 6.779,-15.065 15.065,-15.065l67.795,-0Z" style="fill:#009df1;"/></g><g><path d="M459.42,403.467c-0,-8.286 6.779,-15.065 15.065,-15.065c8.286,-0 15.066,6.779 15.066,15.065l-0,67.795c-0,8.286 -6.78,15.066 -15.066,15.066l-67.795,-0c-8.286,-0 -15.065,-6.78 -15.065,-15.066c-0,-8.286 6.779,-15.065 15.065,-15.065l52.73,-0l-0,-52.73Z" style="fill:#05e462;"/><path d="M150.575,64.492c8.286,-0 15.066,6.779 15.066,15.065c-0,8.286 -6.78,15.066 -15.066,15.066l-52.729,-0l-0,52.729c-0,8.286 -6.78,15.066 -15.066,15.066c-8.286,-0 -15.065,-6.78 -15.065,-15.066l-0,-67.795c-0,-8.286 6.779,-15.065 15.065,-15.065l67.795,-0Z" style="fill:#05e462;"/></g></g></g><g><path d="M210.059,266.232l45.658,0c4.302,0 8.375,2.008 11.014,5.449c2.638,3.442 3.441,7.916 2.237,12.046l-25.698,90.055l105.084,-89.195l-46.749,0c-4.302,0 -8.374,-2.007 -11.013,-5.449c-2.638,-3.441 -3.441,-7.916 -2.237,-12.046l25.64,-89.768l-103.936,88.908Z" style="fill:#05e462;fill-opacity:0.8;fill-rule:nonzero;"/><path d="M334.702,128.568c10.956,-0 18.872,10.497 15.832,20.994l-30.688,107.492l48.871,0c11.07,0 20.018,8.949 20.018,20.019c0,5.908 -2.581,11.472 -7.055,15.258l-148.39,126.02c-2.983,2.524 -6.769,3.9 -10.669,3.9c-10.956,0 -18.872,-10.496 -15.832,-20.993l30.688,-107.493l-49.559,-0c-10.726,-0 -19.388,-8.661 -19.388,-19.33c0,-5.679 2.467,-11.014 6.769,-14.685l148.734,-127.224c2.983,-2.581 6.769,-3.958 10.669,-3.958Zm-20.707,48.756l-103.936,88.908l45.658,0c4.302,0 8.375,2.008 11.014,5.449c2.638,3.442 3.441,7.916 2.237,12.046l-25.698,90.055l105.084,-89.195l-46.749,0c-4.302,0 -8.374,-2.007 -11.013,-5.449c-2.638,-3.441 -3.441,-7.916 -2.237,-12.046l25.64,-89.768Z" style="fill:#009df1;fill-opacity:0.6;fill-rule:nonzero;"/></g></g></g><g id="Final-Text" serif:id="Final Text" opacity="0.9"><g><path d="M601.687,440.306l46.024,-171.763l127.9,-0l-7.521,28.069l-88.7,-0l-11.662,43.52l77.255,0l-7.59,28.327l-77.541,-0l-11.73,43.778l88.986,-0l-7.521,28.069l-127.9,-0Z" style="fill:#44ff92;fill-rule:nonzero;"/><path d="M850.883,387l-55.772,53.306l-38.914,-0l82.959,-74.68l11.727,21.374Zm54.101,53.306l-43.491,-0l-69.089,-129.788l43.492,-0l69.088,129.788Zm-59.899,-75.452l103.773,-96.311l38.913,-0l-131.452,118.457l-11.234,-22.146Z" style="fill:#44ff92;fill-rule:nonzero;"/><path d="M1004.74,443.911c-3.243,0 -7.502,-0.3 -12.778,-0.901c-5.275,-0.601 -10.497,-1.76 -15.664,-3.477c-5.167,-1.716 -9.316,-4.206 -12.448,-7.468l10.84,-10.558l-18.216,67.985l-35.766,-0l40.918,-152.708c1.472,-5.493 4.574,-10.129 9.305,-13.905c4.732,-3.777 10.52,-6.868 17.363,-9.271c6.844,-2.404 14.325,-4.163 22.445,-5.279c8.12,-1.116 16.376,-1.674 24.77,-1.674c13.543,0 25.117,2.189 34.722,6.567c9.604,4.377 16.138,11.674 19.6,21.889c3.462,10.214 2.802,24.249 -1.983,42.103c-3.588,13.391 -9.302,25.108 -17.144,35.151c-7.841,10.044 -17.314,17.812 -28.419,23.306c-11.105,5.493 -23.62,8.24 -37.545,8.24Zm-1.694,-26.781c8.393,-0 15.746,-1.46 22.06,-4.378c6.314,-2.919 11.659,-7.382 16.035,-13.391c4.376,-6.009 7.829,-13.734 10.359,-23.177c2.208,-8.24 3.15,-15.493 2.826,-21.76c-0.324,-6.266 -2.637,-11.159 -6.94,-14.678c-4.302,-3.52 -11.223,-5.279 -20.76,-5.279c-9.347,-0 -16.683,0.858 -22.007,2.575c-5.324,1.717 -8.4,4.12 -9.228,7.21l-17.803,66.44c3.79,2.231 7.931,3.862 12.424,4.892c4.492,1.03 8.837,1.546 13.034,1.546Z" style="fill:#44ff92;fill-rule:nonzero;"/><path d="M1103.27,440.306l31.395,-117.17c3.131,-1.717 8.415,-3.82 15.854,-6.309c7.439,-2.489 15.906,-4.721 25.4,-6.696c9.494,-1.974 18.82,-2.961 27.976,-2.961c6.867,0 12.224,0.472 16.073,1.416c3.848,0.945 6.828,2.103 8.94,3.477l-6.625,24.721c-3.677,-0.515 -7.901,-0.944 -12.673,-1.287c-4.773,-0.344 -9.698,-0.472 -14.776,-0.386c-5.078,0.085 -9.999,0.3 -14.765,0.643c-4.765,0.344 -9.029,0.773 -12.791,1.288l-27.67,103.264l-36.338,-0Z" style="fill:#44ff92;fill-rule:nonzero;"/><path d="M1278.21,444.169c-14.306,-0 -26.135,-2.661 -35.487,-7.983c-9.351,-5.322 -15.638,-13.005 -18.86,-23.048c-3.223,-10.043 -2.925,-22.189 0.893,-36.439c6.072,-22.661 16.775,-40 32.108,-52.018c15.333,-12.017 34.063,-18.026 56.19,-18.026c15.642,0 27.499,3.09 35.571,9.271c8.072,6.18 12.761,15.021 14.067,26.524c1.305,11.502 -0.254,25.151 -4.677,40.945l-111.59,-0l3.359,-22.147l85.266,0l-9.351,9.271c3.253,-13.562 3.24,-23.305 -0.037,-29.228c-3.277,-5.923 -10.257,-8.884 -20.939,-8.884c-6.485,-0 -12.469,1.33 -17.951,3.991c-5.482,2.661 -10.338,7.082 -14.57,13.262c-4.231,6.181 -7.795,14.679 -10.693,25.494c-3.588,13.391 -2.844,23.606 2.232,30.645c5.077,7.039 14.863,10.558 29.361,10.558c5.913,-0 11.726,-0.515 17.438,-1.545c5.713,-1.03 11.124,-2.361 16.235,-3.992c5.11,-1.631 9.566,-3.133 13.368,-4.506l-7.797,29.099c-7.558,2.575 -15.751,4.678 -24.581,6.309c-8.83,1.631 -18.682,2.447 -29.555,2.447Z" style="fill:#44ff92;fill-rule:nonzero;"/><path d="M1416.41,444.169c-10.301,-0 -18.811,-0.987 -25.531,-2.962c-6.719,-1.974 -13.049,-4.335 -18.99,-7.081l7.935,-29.615c3.698,2.575 7.668,5.022 11.911,7.339c4.243,2.318 8.995,4.164 14.254,5.537c5.259,1.373 11.227,2.06 17.903,2.06c7.439,0 13.364,-1.287 17.774,-3.863c4.409,-2.575 7.143,-5.837 8.201,-9.785c0.92,-3.434 0.214,-6.138 -2.118,-8.112c-2.332,-1.974 -5.604,-3.648 -9.814,-5.022c-4.21,-1.373 -8.706,-2.746 -13.488,-4.12c-4.493,-1.03 -8.942,-2.403 -13.346,-4.12c-4.404,-1.717 -8.218,-4.034 -11.442,-6.953c-3.224,-2.919 -5.418,-6.653 -6.584,-11.202c-1.165,-4.549 -0.874,-10.086 0.874,-16.61c2.07,-7.725 5.535,-14.249 10.395,-19.571c4.859,-5.322 10.551,-9.657 17.076,-13.005c6.524,-3.347 13.272,-5.751 20.244,-7.21c6.972,-1.459 13.582,-2.103 19.831,-1.931c11.018,0.171 19.589,1.287 25.713,3.347c6.124,2.06 11.752,4.55 16.884,7.468l-7.177,26.782c-5.802,-3.262 -11.446,-6.223 -16.933,-8.884c-5.486,-2.661 -12.331,-3.992 -20.533,-3.992c-7.439,0 -13.52,1.159 -18.242,3.477c-4.722,2.317 -7.636,5.536 -8.74,9.656c-0.966,3.606 -0.496,6.481 1.409,8.627c1.904,2.146 4.735,3.863 8.491,5.151c3.756,1.287 7.858,2.532 12.304,3.734c4.447,1.201 9.003,2.532 13.667,3.991c4.664,1.459 8.88,3.519 12.65,6.18c3.77,2.661 6.416,6.31 7.94,10.945c1.524,4.635 1.297,10.644 -0.681,18.026c-2.905,10.129 -8.083,18.241 -15.534,24.335c-7.451,6.095 -16.122,10.516 -26.014,13.262c-9.892,2.747 -19.989,4.121 -30.289,4.121Z" style="fill:#44ff92;fill-rule:nonzero;"/><path d="M1552.32,444.169c-10.301,-0 -18.811,-0.987 -25.53,-2.962c-6.72,-1.974 -13.05,-4.335 -18.99,-7.081l7.935,-29.615c3.697,2.575 7.667,5.022 11.911,7.339c4.243,2.318 8.994,4.164 14.253,5.537c5.259,1.373 11.227,2.06 17.903,2.06c7.44,0 13.364,-1.287 17.774,-3.863c4.41,-2.575 7.144,-5.837 8.202,-9.785c0.92,-3.434 0.213,-6.138 -2.119,-8.112c-2.332,-1.974 -5.603,-3.648 -9.813,-5.022c-4.21,-1.373 -8.707,-2.746 -13.489,-4.12c-4.493,-1.03 -8.941,-2.403 -13.345,-4.12c-4.405,-1.717 -8.219,-4.034 -11.442,-6.953c-3.224,-2.919 -5.419,-6.653 -6.584,-11.202c-1.166,-4.549 -0.874,-10.086 0.874,-16.61c2.07,-7.725 5.535,-14.249 10.394,-19.571c4.86,-5.322 10.552,-9.657 17.076,-13.005c6.524,-3.347 13.272,-5.751 20.244,-7.21c6.972,-1.459 13.583,-2.103 19.832,-1.931c11.017,0.171 19.588,1.287 25.713,3.347c6.124,2.06 11.752,4.55 16.883,7.468l-7.176,26.782c-5.802,-3.262 -11.447,-6.223 -16.933,-8.884c-5.487,-2.661 -12.331,-3.992 -20.534,-3.992c-7.439,0 -13.52,1.159 -18.242,3.477c-4.722,2.317 -7.635,5.536 -8.739,9.656c-0.966,3.606 -0.497,6.481 1.408,8.627c1.905,2.146 4.735,3.863 8.491,5.151c3.757,1.287 7.858,2.532 12.305,3.734c4.447,1.201 9.002,2.532 13.666,3.991c4.664,1.459 8.881,3.519 12.65,6.18c3.77,2.661 6.417,6.31 7.941,10.945c1.524,4.635 1.297,10.644 -0.681,18.026c-2.905,10.129 -8.083,18.241 -15.534,24.335c-7.451,6.095 -16.123,10.516 -26.015,13.262c-9.892,2.747 -19.988,4.121 -30.289,4.121Z" style="fill:#44ff92;fill-rule:nonzero;"/></g><path d="M672.251,162.509l-0,34.35l-20.4,0l-0,-100.05l42.3,0c11.6,0 20.625,2.65 27.075,7.95c6.45,5.3 9.675,13.35 9.675,24.15c-0,10.8 -3.225,19.1 -9.675,24.9c-6.45,5.8 -15.475,8.7 -27.075,8.7l-21.9,0Zm-0,-16.5l19.35,0c3.5,0 6.375,-0.4 8.625,-1.2c2.25,-0.8 4.025,-1.975 5.325,-3.525c1.3,-1.55 2.225,-3.275 2.775,-5.175c0.55,-1.9 0.825,-3.95 0.825,-6.15c-0,-2.3 -0.275,-4.45 -0.825,-6.45c-0.55,-2 -1.475,-3.8 -2.775,-5.4c-1.3,-1.6 -3.075,-2.825 -5.325,-3.675c-2.25,-0.85 -5.125,-1.275 -8.625,-1.275l-19.35,0l-0,32.85Z" style="fill:#31baff;fill-rule:nonzero;"/><path d="M781.901,199.109c-12.5,0 -21.85,-3.45 -28.05,-10.35c-6.2,-6.9 -9.3,-16.85 -9.3,-29.85c-0,-14 3.175,-24.15 9.525,-30.45c6.35,-6.3 15.575,-9.45 27.675,-9.45c8.4,0 15.375,1.475 20.925,4.425c5.55,2.95 9.725,7.375 12.525,13.275c2.8,5.9 4.2,13.3 4.2,22.2c-0,13 -3.25,22.95 -9.75,29.85c-6.5,6.9 -15.75,10.35 -27.75,10.35Zm-0.15,-15.6c4.4,0 7.975,-1 10.725,-3c2.75,-2 4.775,-4.85 6.075,-8.55c1.3,-3.7 1.95,-8.05 1.95,-13.05c-0,-5.7 -0.675,-10.35 -2.025,-13.95c-1.35,-3.6 -3.4,-6.25 -6.15,-7.95c-2.75,-1.7 -6.275,-2.55 -10.575,-2.55c-4.4,0 -7.95,0.9 -10.65,2.7c-2.7,1.8 -4.65,4.5 -5.85,8.1c-1.2,3.6 -1.8,8.15 -1.8,13.65c-0,7.9 1.425,13.975 4.275,18.225c2.85,4.25 7.525,6.375 14.025,6.375Z" style="fill:#31baff;fill-rule:nonzero;"/><rect x="836.201" y="92.609" width="18.9" height="104.25" style="fill:#31baff;fill-rule:nonzero;"/><path d="M904.451,199.109c-4.3,0 -8.35,-0.4 -12.15,-1.2c-3.8,-0.8 -7.2,-2.15 -10.2,-4.05c-3,-1.9 -5.375,-4.475 -7.125,-7.725c-1.75,-3.25 -2.625,-7.275 -2.625,-12.075c-0,-5.2 1.05,-9.575 3.15,-13.125c2.1,-3.55 5.175,-6.25 9.225,-8.1c4.05,-1.85 9.025,-2.775 14.925,-2.775c3.6,0 6.95,0.325 10.05,0.975c3.1,0.65 5.9,1.55 8.4,2.7c2.5,1.15 4.55,2.375 6.15,3.675l1.35,10.65c-2.1,-1.4 -4.775,-2.525 -8.025,-3.375c-3.25,-0.85 -6.775,-1.275 -10.575,-1.275c-5.3,0 -9.25,0.85 -11.85,2.55c-2.6,1.7 -3.9,4.35 -3.9,7.95c-0,2.4 0.7,4.45 2.1,6.15c1.4,1.7 3.2,2.95 5.4,3.75c2.2,0.8 4.5,1.2 6.9,1.2c5.5,0 9.475,-0.375 11.925,-1.125c2.45,-0.75 3.675,-2.375 3.675,-4.875l-0,-29.7c-0,-4.9 -1.55,-8.475 -4.65,-10.725c-3.1,-2.25 -7.45,-3.375 -13.05,-3.375c-4.3,0 -8.7,0.725 -13.2,2.175c-4.5,1.45 -8.15,3.325 -10.95,5.625l-0,-17.25c2.7,-1.8 6.75,-3.325 12.15,-4.575c5.4,-1.25 11.2,-1.875 17.4,-1.875c2.6,0 5.35,0.225 8.25,0.675c2.9,0.45 5.7,1.225 8.4,2.325c2.7,1.1 5.15,2.65 7.35,4.65c2.2,2 3.95,4.475 5.25,7.425c1.3,2.95 1.95,6.525 1.95,10.725l-0.15,35.85c-0,4.6 -1.475,8.225 -4.425,10.875c-2.95,2.65 -7.1,4.525 -12.45,5.625c-5.35,1.1 -11.575,1.65 -18.675,1.65Z" style="fill:#31baff;fill-rule:nonzero;"/><path d="M961.151,196.859l-0,-68.25c1.4,-1 3.875,-2.225 7.425,-3.675c3.55,-1.45 7.675,-2.75 12.375,-3.9c4.7,-1.15 9.45,-1.725 14.25,-1.725c3.6,0 6.475,0.275 8.625,0.825c2.15,0.55 3.875,1.225 5.175,2.025l-0,14.4c-2,-0.3 -4.275,-0.55 -6.825,-0.75c-2.55,-0.2 -5.15,-0.275 -7.8,-0.225c-2.65,0.05 -5.2,0.175 -7.65,0.375c-2.45,0.2 -4.625,0.45 -6.525,0.75l-0,60.15l-19.05,0Z" style="fill:#31baff;fill-rule:nonzero;"/><path d="M1023.7,196.859l-0,-74.85l19.05,0l0.15,74.85l-19.2,0Zm-0.45,-86.85l-0,-15.75l19.95,0l-0,15.75l-19.95,0Z" style="fill:#31baff;fill-rule:nonzero;"/><path d="M1086.4,199.109c-5.4,0 -10,-0.575 -13.8,-1.725c-3.8,-1.15 -7.45,-2.525 -10.95,-4.125l-0,-17.25c2.3,1.5 4.725,2.925 7.275,4.275c2.55,1.35 5.3,2.425 8.25,3.225c2.95,0.8 6.175,1.2 9.675,1.2c3.9,0 6.825,-0.75 8.775,-2.25c1.95,-1.5 2.925,-3.4 2.925,-5.7c-0,-2 -0.75,-3.575 -2.25,-4.725c-1.5,-1.15 -3.45,-2.125 -5.85,-2.925c-2.4,-0.8 -4.95,-1.6 -7.65,-2.4c-2.5,-0.6 -5.025,-1.4 -7.575,-2.4c-2.55,-1 -4.875,-2.35 -6.975,-4.05c-2.1,-1.7 -3.775,-3.875 -5.025,-6.525c-1.25,-2.65 -1.875,-5.875 -1.875,-9.675c-0,-4.5 0.9,-8.3 2.7,-11.4c1.8,-3.1 4.175,-5.625 7.125,-7.575c2.95,-1.95 6.15,-3.35 9.6,-4.2c3.45,-0.85 6.825,-1.225 10.125,-1.125c5.8,0.1 10.45,0.75 13.95,1.95c3.5,1.2 6.8,2.65 9.9,4.35l-0,15.6c-3.5,-1.9 -6.875,-3.625 -10.125,-5.175c-3.25,-1.55 -7.025,-2.325 -11.325,-2.325c-3.9,0 -6.925,0.675 -9.075,2.025c-2.15,1.35 -3.225,3.225 -3.225,5.625c-0,2.1 0.65,3.775 1.95,5.025c1.3,1.25 3.025,2.25 5.175,3c2.15,0.75 4.475,1.475 6.975,2.175c2.5,0.7 5.075,1.475 7.725,2.325c2.65,0.85 5.15,2.05 7.5,3.6c2.35,1.55 4.25,3.675 5.7,6.375c1.45,2.7 2.175,6.2 2.175,10.5c-0.1,5.9 -1.675,10.625 -4.725,14.175c-3.05,3.55 -6.975,6.125 -11.775,7.725c-4.8,1.6 -9.9,2.4 -15.3,2.4Z" style="fill:#31baff;fill-rule:nonzero;"/></g></g></svg>